<svg
   xmlns:dc="http://purl.org/dc/elements/1.1/"
   xmlns:cc="http://creativecommons.org/ns#"
   xmlns:rdf="http://www.w3.org/1999/02/22-rdf-syntax-ns#"
   xmlns:svg="http://www.w3.org/2000/svg"
   xmlns="http://www.w3.org/2000/svg"
   xmlns:sodipodi="http://sodipodi.sourceforge.net/DTD/sodipodi-0.dtd"
   xmlns:inkscape="http://www.inkscape.org/namespaces/inkscape"
   xml:space="preserve"
   width="196.24063mm"
   height="196.43323mm"
   version="1.1"
   style="clip-rule:evenodd;fill-rule:evenodd;image-rendering:optimizeQuality;shape-rendering:geometricPrecision;text-rendering:geometricPrecision"
   viewBox="0 0 19624.079 19643.284"
   id="svg37"
   sodipodi:docname="bubble_one.svg"
   inkscape:version="1.0.1 (3bc2e813f5, 2020-09-07)"><sodipodi:namedview
   pagecolor="#00ffff"
   bordercolor="#666666"
   borderopacity="1"
   objecttolerance="10"
   gridtolerance="10"
   guidetolerance="10"
   inkscape:pageopacity="0"
   inkscape:pageshadow="2"
   inkscape:window-width="1280"
   inkscape:window-height="961"
   id="namedview12"
   showgrid="false"
   inkscape:zoom="1.619129"
   inkscape:cx="589.66998"
   inkscape:cy="583.7047"
   inkscape:window-x="-8"
   inkscape:window-y="-8"
   inkscape:window-maximized="1"
   inkscape:current-layer="svg37" /><metadata
   id="metadata41"><rdf:RDF><cc:Work
       rdf:about=""><dc:format>image/svg+xml</dc:format><dc:type
         rdf:resource="http://purl.org/dc/dcmitype/StillImage" /><dc:title></dc:title></cc:Work></rdf:RDF></metadata>
 <defs
   id="defs4">
  <style
   type="text/css"
   id="style2">
   <![CDATA[
    .fil1 {fill:white;fill-rule:nonzero}
    .fil0 {fill:white;fill-rule:nonzero;fill-opacity:0.101961}
   ]]>
  </style>
 
  
  
 
   
   
   
   
   
   
   
   
   
   
   
   
   
   
  </defs>
 <path
   class="fil1"
   d="m 19623.9,9785.4538 -126.93,72.46 -12.62,-498.5495 -37.4,-492.23 -61.66,-485.24 -85.24,-477.66 -108.37,-469.44 -130.84,-460.56 -152.65,-451.16 -173.92,-441.01 -194.45,-430.21 -214.6,-418.89 -233.89,-406.86 -252.73,-394.23 -270.97,-381 -288.57,-367.14 -305.5,-352.67 -321.84,-337.57 -337.65,-321.88 -352.7,-305.47 -367.21,-288.57 -381.11,-271.04 -394.44,-252.83 -407.03,-234.11 -419.1,-214.7 -430.5,-194.65997 -441.29,-173.99006 -451.55,-152.82 -461.12,-130.95 -470,-108.55 -478.37,-85.45 -486.09,-61.73 -493.15,-37.54 -499.6104,-12.59 62.69,-146.54999936 503.7004,12.73999936 497.03,37.82 489.62,62.19 481.68,86.04 473.29,109.19 464.08,131.8 454.3,153.7 444.08,175.04996 433.11,195.8301 421.57,215.89997 409.43,235.44 396.63,254.28 383.29,272.59 369.25,290.16 354.69,307.24 339.54,323.67 323.71,339.59 307.31,354.78 290.3,369.33 272.55,383.4 254.39,396.8 235.55,409.65 216.01,421.78 195.93,433.35 175.19,444.36 153.92,454.8 131.97,464.68 109.4,473.85 86.15,482.42 62.3,490.54 37.92,497.88 12.7,504.7195 z m -9843.2004,9857.8502 62.69,-146.51 499.5004,-12.67 492.68,-37.5 485.46,-61.63 477.38,-85.27 468.77,-108.19 459.57,-130.53 449.72,-152.15 439.31,-173.25 428.2,-193.54 416.53,-213.32 404.17,-232.38 391.24,-250.82 377.75,-268.64 363.68,-285.82 349.07,-302.33 333.84,-318.35 318.1,-333.62 301.87,-348.47 285.01,-362.73 267.68,-376.41 249.81,-389.61 231.31,-402.35 212.27,-414.51 192.69,-426.08 172.36,-437.2 151.52,-447.71 129.93,-457.7 107.77,-466.93 84.99,-475.76 61.45,-483.9 37.33,-491.35 12.62,-498.2702 126.93,-72.46 -12.73,505.0802 -37.92,498.72 -62.48,491.84 -86.5,484.36 -109.96,476.25 -132.79,467.51 -155.01,458.15 -176.67,448.2 -197.87,437.55 -218.27,426.19 -238.12,414.13 -257.39,401.39 -275.8,388.02 -293.76,373.84 -310.94,358.98 -327.38,343.4 -343.32,327.24 -358.31,310.44 -372.89,292.98 -386.65,274.96 -399.76,256.29 -412.33,237.07 -424.18,217.27 -435.47,196.85 -446.09,175.93 -456.14,154.38 -465.63,132.25 -474.41,109.51 -482.64,86.25 -490.4,62.27 -497.38,37.81 -503.8004,12.74 z M 0.2,9857.8038 l 126.92,-72.46 12.62,498.5502 37.43,492.23 61.64,485.25 85.25,477.66 108.36004,469.44 130.82,460.55 152.66,451.06 173.91,441.01 194.45996,430.21 214.59,418.92 233.89,406.83 252.78,394.23 270.94,381.03 288.55,367.1 305.5,352.68 321.86,337.6 337.56,321.84 352.67,305.51 367.25,288.54 381.1,271.03 394.41,252.88 407.07,234.06 419.06,214.7 430.5,194.67 441.32,173.99 451.52,152.75 461.12,130.95 470,108.52 478.37,85.47 486.09,61.74 493.19,37.5 499.5996,12.63 -62.69,146.54 -503.7296,-12.73 -496.99,-37.78 -489.66,-62.23 -481.68,-86.05 -473.25,-109.22 -464.12,-131.8 -454.41,-153.67 -443.97,-175.04 -433.07,-195.83 -421.61,-215.94 -409.43,-235.44 -396.59,-254.28 -383.33,-272.56 -369.22,-290.19 -354.7,-307.31 -339.47,-323.71 -323.69,-339.55 -307.31,-354.78 -290.29,-369.33 -272.56,-383.4 -254.4,-396.8 -235.52,-409.65 -215.99998,-421.78 -195.93998,-433.35 -175.23,-444.36 -153.89,-454.8 -131.98004,-464.68 -109.4,-473.85 -86.14,-482.42 -62.310003,-490.54 L 12.74,10362.064 0,9857.3538 Z M 9843.3896,-0.03572936 l -62.69,146.53999936 -499.4996,12.63 -492.69,37.54 -485.42,61.63 -477.42,85.26 -468.73,108.13 -459.64,130.56 -449.68,152.19 -439.32,173.22006 -428.2,193.59997 -416.49,213.36 -404.17,232.34 -391.27,250.86 -377.75,268.68 -363.68,285.75 -349.06,302.36 -333.83,318.31 -318.12,333.62 -301.86,348.48 -285,362.72 -267.71,376.45 -249.79,389.61 -231.33,402.34 -212.27,414.52 -192.65996,426.08 -172.37,437.2 -151.51,447.71 -129.97,457.66 -107.76004,466.97 -85,475.76 -61.43,483.9 -37.33,491.35 -12.62,498.2695 -126.92,72.42 12.72,-505.0395 37.919997,-498.72 62.490003,-491.84 86.5,-484.36 109.97,-476.25 132.76004,-467.51 155.04,-458.25 176.67,-448.21 197.82998,-437.58 218.30998,-426.19 238.13,-414.1 257.36,-401.42 275.81,-387.99 293.83,-373.8 310.95,-359.02 327.41,-343.4 343.2,-327.23 358.42,-310.48 372.88,-293.05 386.68,-274.96 399.77,-256.33 412.29,-237.03 424.18,-217.26997 435.47,-196.8501 446.09,-175.93996 456.25,-154.37 465.59,-132.26 474.42,-109.5 482.67,-86.22 490.39,-62.33 497.39,-37.79 z"
   id="path9" /><path
   class="fil1"
   d="m 2433.47,5819.8443 c -21.64,39.97 -61.56,67.56 -89.1,61.52 -27.58,-5.99 -32.36,-43.35 -10.64,-83.36 l 99.82,21.84 z m 7409.9196,-4512.91 -62.69,146.54 -298.13,5.15 -295.4596,15.53 -292.55,25.54 -289.53,35.42 -286.35,45.19 -282.89,54.71 -279.4,64.14 -275.63,73.3 -271.71,82.34 -267.58,91.09 -263.31,99.84 -258.87,108.23 -254.21,116.49 -249.41,124.6 -244.44,132.47 -239.26,140.22 -234,147.75 -228.45,155.15 -222.82,162.31 -217.06,169.3 -211.14,176.11 -205,182.81 -198.68,189.19 -192.3,195.62 -185.67,201.75 -178.97,207.79 -172.17,213.6 -165.09,219.29 -157.92,224.93 -150.63,230.26 -143.18,235.51 -135.53,240.74 -99.83,-21.84 140.12,-248.85 148.07,-243.66 155.91,-238.3 163.55,-232.87 170.93,-227.08 178.22,-221.13 185.19,-214.94 192.07,-208.64 198.72,-202.14 205.17,-195.44 211.42,-188.52 217.46,-181.47 223.27,-174.2 229.02,-166.79 234.49,-159.18 239.86,-151.41 244.9,-143.55 249.9,-135.53 254.67,-127.21 259.26,-118.85 263.67,-110.25 268,-101.56 271.99,-92.64 275.91,-83.65 279.65,-74.36 283.21,-64.98 286.66,-55.42 289.88,-45.72 292.98,-35.92 295.81,-25.82 298.6196,-15.63 301.1,-5.25 z m 1258.2504,92.74 -73.98,145.77 -38.17,-5.54 -38.27,-5.46 -38.32,-5.26 -38.38,-5.08 -38.38,-4.87 -38.45,-4.8 -38.49,-4.58 -38.56,-4.41 -38.56,-4.24 -38.66,-3.98 -38.7,-3.81 -38.74,-3.67 -38.87,-3.53 -38.85,-3.35 -38.94,-3.18 -38.98,-2.96 -39.02,-2.75 -39.05,-2.61 -39.16,-2.47 -39.12,-2.29 -39.27,-2.12 -39.23,-1.91 -39.23,-1.72 -39.33,-1.52 -39.44,-1.34 -39.44,-1.17 -39.4105,-1.05 -39.54,-0.74 -39.5199,-0.67 -39.61,-0.5 -39.65,-0.28 -39.69,-0.11 62.65,-146.54 40.11,0.11 40.0099,0.28 40,0.49 39.9405,0.67 39.9,0.85 39.79,1.06 39.83,1.27 39.72,1.3 39.72,1.55 39.62,1.7 39.62,1.94 39.51,2.11 39.54,2.3 39.45,2.47 39.4,2.68 39.37,2.78 39.3,2.97 39.26,3.14 39.23,3.35 39.16,3.56 39.12,3.74 39.06,3.92 38.94,4.02 38.99,4.2 38.84,4.41 38.84,4.58 38.8,4.8 38.74,4.98 38.66,5.15 38.67,5.29 38.56,5.43 38.48,5.64 z m 1187.84,265.51 -83.29,143.65 -35.88,-10.73 -35.88,-10.51 -35.98,-10.34 -36.09,-10.23 -36.2,-10.05 -36.16,-9.99 -36.26,-9.73 -36.37,-9.67 -36.37,-9.45 -36.48,-9.32 -36.44,-9.1 -36.59,-8.99 -36.65,-8.79 -36.65,-8.71 -36.73,-8.54 -36.86,-8.29 -36.87,-8.15 -36.93,-8.04 -36.94,-7.87 -37.04,-7.65 -37.15,-7.55 -37.22,-7.38 -37.21,-7.16 -37.33,-7.09 -37.32,-6.88 -37.43,-6.7 -37.43,-6.53 -37.5,-6.38 -37.64,-6.25 -37.61,-6.03 -37.68,-5.82 -37.74,-5.64 73.97,-145.77 38.03,5.75 38,5.93 37.89,6.13 37.88,6.21 37.82,6.39 37.82,6.63 37.71,6.77 37.57,6.92 37.64,7.09 37.5,7.23 37.54,7.51 37.39,7.55 37.33,7.77 37.36,7.83 37.22,8.04 37.11,8.22 37.14,8.43 37.05,8.5 36.93,8.72 36.97,8.92 36.83,9.07 36.76,9.21 36.76,9.34 36.66,9.49 36.54,9.67 36.59,9.88 36.44,9.95 36.37,10.12 36.37,10.37 36.27,10.52 36.16,10.61 36.09,10.8 z m 2124.04,978.21 -97.76,137.06 -60.82,-38.77 -61.27,-38.17 -61.63,-37.72 -62.06,-37.21 -62.26,-36.66 -62.73,-36.19 -62.97,-35.6 -63.32,-35.13 -63.64,-34.54 -64.07,-34.08 -64.31,-33.48 -64.59,-32.95 -64.98,-32.42 -65.27,-31.89 -65.58,-31.29 -65.83,-30.73 -66.21,-30.23 -66.54,-29.67 -66.81,-29.1 -67.1,-28.51 -67.35,-27.97 -67.66,-27.34 -67.98,-26.81 -68.23,-26.22 -68.54,-25.64 -68.79,-25.09 -69.11,-24.51 -69.36,-23.92 -69.67,-23.36 -69.99,-22.79 -70.14,-22.08 -70.45,-21.55 83.26,-143.65 71.01,21.73 70.74,22.29 70.45,22.9 70.16,23.42 69.85,24.13 69.57,24.7 69.29,25.25 69.04,25.86 68.79,26.39 68.44,26.99 68.12,27.55 67.87,28.15 67.56,28.72 67.27,29.31 67,29.85 66.71,30.44 66.32,31.01 66.04,31.47 65.76,32.07 65.37,32.63 65.12,33.2 64.7,33.72 64.38,34.26 64.1,34.71 63.78,35.31 63.36,35.81 63.04,36.37 62.69,36.94 62.37,37.43 62.06,37.89 61.63,38.48 61.34,38.95 z m 0,0 c 22.29,14.36 18.55,56.69 -8.47,94.48 -26.95,37.81 -66.96,56.86 -89.36,42.47 l 97.72,-137.02 z m 1404.23,13040.3597 c 31.93,-32.59 69.53,-39.68 83.89,-15.87 14.39,23.95 0.11,69.78 -31.86,102.44 l -51.96,-86.57 z m -6037.1204,2652.36 62.65,-146.51 219.7804,-2.78 218.27,-8.4 216.92,-13.9 215.19,-19.44 213.65,-24.8 211.87,-30.05 210.08,-35.28 208.28,-40.5 206.34,-45.54 204.33,-50.56 202.21,-55.52 200.13,-60.4 197.95,-65.12 195.61,-69.99 193.33,-74.55 190.85,-79.16 188.35,-83.64 185.87,-88.09 183.2,-92.39 180.48,-96.81 177.73,-100.96 174.95,-105.06 171.97,-109.22 169.06,-113.13 165.94,-117.06 162.88,-120.86 159.74,-124.7 156.56,-128.45 153.25,-132.08 149.89,-135.61 146.51,-139.17 142.98,-142.63 51.97,86.57 -147.78,147.29 -151.31,143.65 -154.66,139.95 -158.01,136.06 -161.18,132.26 -164.32,128.38 -167.47,124.28 -170.46,120.23 -173.43,116.06 -176.28,111.9 -179.17,107.67 -181.86,103.29 -184.5,98.85 -187.12,94.44 -189.62,89.89 -192.08,85.26 -194.49,80.61 -196.67,75.92 -198.97,71.09 -201.15,66.21 -203.31,61.39 -205.28,56.33 -207.29,51.3 -209.13,46.14 -211.03,40.96 -212.76,35.7 -214.49,30.44 -216.08,25.09 -217.66,19.61 -219.18,14.08 -220.59,8.5 -221.9404,2.86 z m -601.1696,-20.92 68.23,-146.36 18.48,1.23 18.49,1.23 18.48,1.17 18.45,1.16 18.49,1.13 18.45,1.06 18.48,1.02 18.56,0.99 18.5596,0.95 18.59,0.96 18.55,0.88 18.56,0.84 18.59,0.78 18.56,0.74 18.59,0.67 18.66,0.71 18.56,0.63 18.66,0.57 18.66,0.6 18.66,0.49 18.67,0.46 18.66,0.46 18.66,0.42 18.66,0.39 18.66,0.25 18.67,0.28 18.66,0.21 18.76,0.18 18.74,0.21 18.77,0.1 18.76,0.11 h 18.77 l -62.69,146.51 h -18.98 l -18.94,-0.11 -18.95,-0.1 -18.94,-0.18 -18.94,-0.21 -18.88,-0.14 -18.84,-0.32 -18.83,-0.28 -18.88,-0.39 -18.84,-0.35 -18.87,-0.5 -18.84,-0.49 -18.87,-0.46 -18.84,-0.6 -18.84,-0.56 -18.8,-0.67 -18.73,-0.67 -18.77,-0.67 -18.73,-0.78 -18.7696,-0.78 -18.77,-0.84 -18.66,-0.85 -18.77,-0.95 -18.66,-0.99 -18.66,-1.02 -18.67,-1.06 -18.66,-1.06 -18.66,-1.16 -18.66,-1.13 -18.66,-1.24 -18.67,-1.23 -18.66,-1.24 z m 0,0 c -29.56,-2.11 -38.17,-36.51 -19.33,-76.97 18.87,-40.4 58.1,-71.51 87.7,-69.39 l -68.26,146.36 z m -1045.99,-299.72 c 27.77,5.75 32.78,42.9 11.29,82.91 -21.41,40.11 -61.31,67.87 -89,62.12 l 77.71,-145.1 z m -3578.75,-1481.88 102.02,-133.98 94.37,72.99 95.5,71.68 96.48,70.35 97.51,69 98.6,67.66 99.55,66.22 100.55,64.91 101.56,63.57 102.52,62.13 103.43,60.64 104.32,59.23 105.3,57.82 106.15,56.3 107.07,54.82 107.95,53.31 108.83,51.86 109.68,50.34 110.46,48.82 111.3,47.28 112.15,45.65 112.96,44.13 113.7,42.51 114.44,40.85 115.25,39.33 115.99,37.72 116.67,35.98 117.44,34.36 118.11,32.74 118.74,30.97 119.45,29.32 120.12,27.55 120.79,25.82 -77.71,145.1 -121.75,-26.11 -121.07,-27.86 -120.37,-29.53 -119.66,-31.33 -118.96,-32.91 -118.28,-34.65 -117.55,-36.3 -116.77,-37.89 -116.06,-39.51 -115.32,-41.27 -114.48,-42.76 -113.7,-44.45 -112.96,-46 -112.08,-47.55 -111.3,-49.15 -110.42,-50.58 -109.61,-52.15 -108.62,-53.72 -107.77,-55.21 -106.89,-56.66 -105.94,-58.17 -104.99,-59.66 -104.14,-61.06 -103.19,-62.52 -102.2,-63.88 -101.17,-65.41 -100.19,-66.67 -99.27,-68.05 -98.18,-69.5 -97.16,-70.84 -96.06,-72.18 -95.04,-73.45 z m 0,0 c -20.89,-16.4 -14.96,-59.65 13.19,-96.69 28.15,-37.04 67.95,-53.66 88.73,-37.29 l -102.03,133.98 z m -1132.81,-1323.55 c 17.43,20.57 6.89,65.55 -23.53,100.3 -30.44,34.85 -69.19,46.42 -86.62,25.82 z m -631.17,-556.26 113.78,-121.46 15.13,22.01 15.22,21.95 15.31,21.9 15.31,21.81 15.42,21.83 15.5,21.73 15.51,21.63 15.59,21.63 15.7,21.55 15.79,21.52 15.78,21.41 15.9,21.49 15.99,21.3 15.97,21.38 16.08,21.21 16.18,21.27 16.18,21.16 16.26,21.14 16.36,21.06 16.46,20.99 16.47,20.92 16.56,20.88 16.65,20.85 16.65,20.78 16.76,20.74 16.74,20.67 16.85,20.57 16.92,20.64 16.96,20.46 17.04,20.5 17.11,20.35 17.15,20.39 -110.16,126.16 -17.32,-20.5 -17.23,-20.57 -17.13,-20.6 -17.14,-20.67 -17.03,-20.68 -16.94,-20.77 -16.95,-20.75 -16.84,-20.88 -16.74,-20.92 -16.75,-20.99 -16.66,-21.06 -16.55,-21.03 -16.57,-21.16 -16.44,-21.14 -16.37,-21.27 -16.28,-21.34 -16.26,-21.34 -16.18,-21.42 -16.08,-21.45 -16.08,-21.52 -15.99,-21.52 -15.87,-21.66 -15.91,-21.62 -15.79,-21.73 -15.69,-21.73 -15.7,-21.84 -15.6,-21.91 -15.5,-21.91 -15.41,-22.01 -15.41,-22.01 -15.32,-22.12 -15.2,-22.12 z m 0,0 c -15.5,-22.68 -2.69,-68.22 28.72,-101.74 31.37,-33.51 69.46,-42.3 84.97,-19.72 l -113.8,121.46 z m -398.34,-970.56 c 13.2,25.08 -2.48,71.23 -34.93,102.91 -32.44,31.75 -69.49,37.11 -82.68,12.03 z m -481.13,-673.21 120.6,-108.44 10.04,25.08 10.15,24.98 10.25,24.98 10.33,24.97 10.34,24.91 10.43,24.87 10.53,24.8 10.62,24.77 10.72,24.69 10.82,24.69 10.9,24.7 10.93,24.62 10.98,24.56 11.12,24.51 11.19,24.52 11.19,24.49 11.3,24.41 11.4,24.41 11.48,24.31 11.57,24.3 11.58,24.24 11.68,24.2 11.77,24.09 11.87,24.13 11.86,24.13 11.98,24.03 12.06,24.02 12.15,23.92 12.25,23.92 12.25,23.85 12.35,23.81 12.44,23.74 -117.61,114.94 -12.54,-23.92 -12.46,-24.03 -12.33,-24.02 -12.35,-24.03 -12.25,-24.13 -12.17,-24.2 -12.06,-24.23 -11.94,-24.2 -11.98,-24.31 -11.86,-24.38 -11.77,-24.41 -11.68,-24.41 -11.68,-24.52 -11.58,-24.48 -11.49,-24.62 -11.38,-24.59 -11.3,-24.7 -11.3,-24.69 -11.19,-24.7 -11.09,-24.76 -11.01,-24.8 -10.9,-24.87 -10.93,-24.87 -10.82,-24.98 -10.71,-25.01 -10.64,-25.05 -10.51,-25.08 -10.53,-25.08 -10.43,-25.19 -10.35,-25.16 -10.22,-25.25 -10.15,-25.26 z m 0,0 c -10.89,-27.19 7.3,-73.58 40.59,-103.47 33.31,-29.95 69.19,-32.13 80.01,-4.86 l -120.6,108.41 z m -227.77,-1186.28 c 7.45,30.06 -14.18,76.38 -48.44,103.47 -34.26,27.06 -68.03,24.59 -75.6,-5.47 l 123.94,-98 z m -290.46,-752.72 125.84,-88.55 3.82,26.7 3.92,26.71 4.04,26.71 4.09,26.59 4.23,26.6 4.3,26.6 4.41,26.53 4.4,26.53 4.49,26.5 4.6,26.49 4.69,26.42 4.78,26.42 4.88,26.39 4.98,26.46 4.98,26.32 5.17,26.32 5.17,26.31 5.26,26.21 5.36,26.22 5.46,26.24 5.55,26.14 5.55,26.11 5.64,26.1 5.75,26.07 5.83,26.04 5.94,26.03 6.03,26 6.12,25.97 6.14,25.93 6.21,25.82 6.32,25.86 6.41,25.82 -123.94,98.04 -6.52,-26.14 -6.4,-26.14 -6.31,-26.21 -6.22,-26.25 -6.15,-26.21 -6.1,-26.25 -6.04,-26.32 -5.94,-26.28 -5.84,-26.42 -5.73,-26.42 -5.65,-26.43 -5.55,-26.38 -5.46,-26.53 -5.45,-26.53 -5.37,-26.6 -5.25,-26.49 -5.17,-26.64 -5.08,-26.6 -4.98,-26.6 -4.97,-26.7 -4.88,-26.71 -4.8,-26.77 -4.68,-26.82 -4.59,-26.81 -4.51,-26.88 -4.38,-26.88 -4.31,-26.92 -4.22,-26.88 -4.2,-26.99 -4.12,-26.98 -4.03,-26.99 -3.91,-27.09 z m 0,0 c -4.61,-32.28 19.8,-78.21 54.54,-102.7 34.74,-24.41 66.61,-18.09 71.21,14.08 l -125.86,88.51 z"
   id="path11" /><path
   class="fil1"
   d="m 7149.33,16258.434 c 24.98,10.44 25.29,50.52 0.78,89.67 -24.63,39.13 -64.81,62.37 -89.79,51.93 l 89.01,-141.5 z m -845.4,-227.97 95.15,-138.6 22.68,12.7 22.79,12.66 22.79,12.63 22.75,12.56 22.9,12.42 22.93,12.34 23,12.25 23.07,12.17 23.07,12.06 23.15,11.96 23.17,11.96 23.25,11.89 23.25,11.75 23.35,11.67 23.36,11.57 23.46,11.5 23.42,11.36 23.57,11.43 23.63,11.29 23.64,11.19 23.64,11.11 23.74,11.01 23.74,10.9 23.81,10.79 23.85,10.73 23.92,10.65 23.92,10.51 24.02,10.55 24.02,10.41 24.13,10.33 24.13,10.27 24.2,10.12 -89,141.54 -24.41,-10.23 -24.31,-10.34 -24.31,-10.33 -24.23,-10.52 -24.2,-10.55 -24.13,-10.61 -24.1,-10.73 -24.06,-10.83 -23.99,-10.86 -23.91,-11.05 -23.96,-11.07 -23.81,-11.19 -23.85,-11.32 -23.7,-11.4 -23.75,-11.36 -23.63,-11.46 -23.67,-11.64 -23.53,-11.68 -23.53,-11.75 -23.46,-11.85 -23.46,-11.99 -23.36,-12.03 -23.35,-12.17 -23.25,-12.18 -23.25,-12.2 -23.18,-12.38 -23.07,-12.42 -23.03,-12.56 -23.07,-12.6 -23.01,-12.77 -22.86,-12.7 -22.86,-12.84 z m 0,0 c -23.25,-13.12 -20.74,-54.75 5.58,-93.06 26.21,-38.28 66.42,-58.67 89.57,-45.54 z M 9780.6996,2848.5043 c -30.45,0 -41.14,-32.85 -23.81,-73.2 17.28,-40.5 56.09,-73.24 86.5,-73.24 l -62.69,146.54 z m 5885.3204,2905.65 -113.59,121.64 -121.18,-169.58 -126.05,-165.74 -130.85,-161.96 -135.5,-157.9 -140.02,-153.81 -144.53,-149.58 -148.8,-145.31 -153.07,-140.86 -157.23,-136.28 -161.26,-131.69 -165.2,-126.9 -169.02,-122.13 -172.65,-117.15 -176.28,-112.19 -179.85,-107 -183.16,-101.7 -186.55,-96.42 -189.69,-90.91 -192.76,-85.26 -195.72,-79.62 -198.58,-73.88 -201.4,-67.98 -204.04,-62.02 -206.63,-55.88 -209.02,-49.67 -211.42,-43.35 -213.6,-37.04 -215.73,-30.55 -217.73,-23.92 -219.64,-17.22 -221.47,-10.44 -223.1704,-3.53 62.65,-146.51 225.7104,3.53 223.94,10.51 222.04,17.43 220.03,24.13 217.94,30.8 215.69,37.32 213.43,43.85 211.03,50.13 208.46,56.38 205.88,62.51 203.17,68.51 200.3,74.47 197.38,80.29 194.38,86.04 191.21,91.58 188.06,97.16 184.65,102.48 181.26,107.78 177.73,113.03 174.06,118.11 170.28,123.08 166.44,127.95 162.53,132.75 158.36,137.44 154.3,141.93 149.97,146.43 145.66,150.75 141.18,155.04 136.56,159.18 131.87,163.16 127.14,167.18 122.21,171.02 z m 0,0 c 15.59,22.61 2.89,68.09 -28.5,101.67 -31.44,33.59 -69.5,42.48 -85.09,19.9 l 113.59,-121.64 z"
   id="path13" /><path
   class="fil0"
   d="m 23114.08,21731.004 c -494.28,0 -987.15,198.91 -1348.25,591.26 -685.09,744.35 -637.15,1903.25 107.24,2588.34 352.01,323.98 796.65,484.01 1240.12,484.01 494.32,0 987.15,-198.89 1348.25,-591.26 685.09,-744.37 637.12,-1903.25 -107.24,-2588.34 -352.01,-323.99 -796.65,-484.05 -1240.12,-484.01 z"
   id="path29" />
</svg>
