<svg
   xmlns:dc="http://purl.org/dc/elements/1.1/"
   xmlns:cc="http://creativecommons.org/ns#"
   xmlns:rdf="http://www.w3.org/1999/02/22-rdf-syntax-ns#"
   xmlns:svg="http://www.w3.org/2000/svg"
   xmlns="http://www.w3.org/2000/svg"
   xmlns:sodipodi="http://sodipodi.sourceforge.net/DTD/sodipodi-0.dtd"
   xmlns:inkscape="http://www.inkscape.org/namespaces/inkscape"
   xml:space="preserve"
   width="55.581455mm"
   height="55.738976mm"
   version="1.1"
   style="clip-rule:evenodd;fill-rule:evenodd;image-rendering:optimizeQuality;shape-rendering:geometricPrecision;text-rendering:geometricPrecision"
   viewBox="0 0 7028.8323 7048.7473"
   id="svg16"
   sodipodi:docname="bubble.svg"
   inkscape:version="1.0.1 (3bc2e813f5, 2020-09-07)"><metadata
   id="metadata20"><rdf:RDF><cc:Work
       rdf:about=""><dc:format>image/svg+xml</dc:format><dc:type
         rdf:resource="http://purl.org/dc/dcmitype/StillImage" /><dc:title></dc:title></cc:Work></rdf:RDF></metadata><sodipodi:namedview
   pagecolor="#ffffff"
   bordercolor="#666666"
   borderopacity="1"
   objecttolerance="10"
   gridtolerance="10"
   guidetolerance="10"
   inkscape:pageopacity="1"
   inkscape:pageshadow="2"
   inkscape:window-width="1280"
   inkscape:window-height="961"
   id="namedview18"
   showgrid="false"
   fit-margin-top="0"
   fit-margin-left="0"
   fit-margin-right="0"
   fit-margin-bottom="0"
   inkscape:zoom="2.0174155"
   inkscape:cx="192.27371"
   inkscape:cy="130.24869"
   inkscape:window-x="-8"
   inkscape:window-y="-8"
   inkscape:window-maximized="1"
   inkscape:current-layer="Слой_x0020_1" />
 <defs
   id="defs4">
  <style
   type="text/css"
   id="style2">
   <![CDATA[
    .fil1 {fill:white;fill-rule:nonzero}
    .fil0 {fill:white;fill-rule:nonzero;fill-opacity:0.101961}
   ]]>
  </style>
 </defs>
 <g
   id="Слой_x0020_1"
   transform="translate(0.02)">
  <metadata
   id="CorelCorpID_0Corel-Layer" />
  <path
   class="fil0"
   d="M 3514.48,74.46 C 1609.17,74.46 64.61,1619.03 64.61,3524.28 c 0,1905.31 1544.56,3449.84 3449.87,3449.84 1905.25,0 3449.82,-1544.53 3449.82,-3449.84 C 6964.3,1619.03 5419.73,74.46 3514.48,74.46 Z"
   id="path7" />
  <path
   class="fil1"
   d="m 7028.79,3487.51 -129.07,73.68 -4.36,-174.35 -13.16,-172.34 -21.59,-169.97 -29.9,-167.47 -38.01,-164.71 -45.9,-161.72 -53.67,-158.38 -61.03,-154.93 -68.34,-151.2 -75.45,-147.31 -82.3,-143.06 -88.88,-138.66 -95.34,-134.01 L 6120.31,1393.84 6012.79,1269.73 5899.47,1150.97 5780.62,1037.65 5656.51,930.05 5527.18,828.38 5393.03,732.95 5254.19,644 5110.9,561.6 4963.37,486.08 4811.91,417.55 4656.62,356.34 4497.84,302.58 4335.63,256.54 4170.35,218.35 4002.21,188.38 3831.3,166.65 3658.02,153.54 3482.61,149.08 3546.4,0.02 3726.01,4.57 3903.22,18 l 174.43,22.22 171.67,30.65 168.51,38.94 165.19,46.94 161.72,54.69 158.02,62.32 154.08,69.73 150.03,76.82 145.67,83.73 141.05,90.43 136.43,96.94 131.3,103.19 126.16,109.39 120.86,115.09 115.14,120.82 109.35,126.33 103.32,131.39 97.07,136.51 90.52,141.24 83.83,145.83 76.86,150.25 69.87,154.41 62.37,158.42 54.91,162.17 47.07,165.78 39.04,169.13 30.74,172.34 22.31,175.32 13.51,178.09 4.55,180.65 v -0.25 z m -3546.25,3561.18 63.75,-149.06 175.32,-4.48 172.83,-13.15 170.06,-21.61 167.15,-29.88 164.08,-37.87 160.6,-45.65 157.04,-53.15 153.19,-60.38 149.01,-67.35 144.77,-74.19 140.4,-80.68 135.62,-86.95 130.76,-92.97 125.68,-98.74 120.4,-104.34 115.1,-109.64 109.53,-114.9 103.76,-119.8 97.97,-124.73 92,-129.39 85.88,-133.97 79.63,-138.46 73.12,-142.81 66.47,-147 59.6,-151.08 52.47,-155.01 45.1,-158.67 37.43,-162.2 29.63,-165.51 21.41,-168.63 13.08,-171.45 4.36,-174.03 129.07,-73.71 -4.55,180.98 -13.61,178.92 -22.52,176.7 -31.13,174.27 -39.62,171.66 -47.92,168.74 -56.07,165.59 -63.94,162.3 -71.78,158.58 -79.23,154.7 -86.6,150.54 -93.5,145.95 -100.37,141.15 -106.93,135.87 -113,130.58 -118.99,124.8 -124.6,118.76 -130,112.59 -134.91,106.09 -139.81,99.42 -144.32,92.48 -148.65,85.49 -152.66,78.15 -156.49,70.8 -160.16,63.17 -163.55,55.28 -166.76,47.37 -169.84,39.2 -172.61,30.86 -175.15,22.29 -177.56,13.54 -179.74,4.59 0.32,0.09 z M 0.01,3561.19 l 129.07,-73.68 4.38,174.35 13.16,172.31 21.59,169.99 29.9,167.42 37.96,164.78 45.94,161.68 53.67,158.4 61.03,154.88 68.35,151.23 75.43,147.29 82.27,143.13 88.9,138.63 95.3,134.05 101.53,129.22 107.52,124.13 113.31,118.76 118.85,113.31 124.12,107.55 129.33,101.65 134.15,95.41 138.83,89.02 143.29,82.34 147.49,75.55 151.51,68.58 155.24,61.21 158.82,53.76 162.21,46.06 165.3,38.17 168.14,29.96 170.86,21.71 173.28,13.15 175.46,4.48 -63.8,149.06 -179.56,-4.59 -177.25,-13.42 -174.44,-22.22 -171.67,-30.67 -168.5,-38.95 -165.19,-46.92 -161.73,-54.72 -158.01,-62.29 -154.09,-69.72 -150.07,-76.81 -145.62,-83.73 -141.07,-90.44 -136.43,-96.93 L 1267.48,6254.1 1141.27,6144.75 1020.41,6029.61 905.32,5908.79 795.92,5782.49 692.65,5651.05 595.57,5514.56 505.05,5373.32 421.23,5227.46 344.32,5077.24 274.5,4922.84 212.08,4764.42 157.21,4602.22 110.14,4436.46 71.11,4267.33 40.37,4095.02 18.06,3919.67 4.54,3741.6 -0.01,3560.89 v 0.32 z M 3546.29,0 l -63.75,149.06 -175.37,4.46 -172.83,13.11 -170.01,21.64 -167.17,29.88 -164.08,37.87 -160.64,45.69 -156.99,53.13 -153.21,60.32 -149.01,67.4 -144.81,74.19 -140.35,80.71 -135.63,86.95 -130.76,92.96 -125.66,98.73 -120.42,104.35 -115.09,109.62 -109.58,114.88 -103.76,119.87 -97.93,124.69 -91.99,129.42 -85.88,133.97 -79.68,138.39 -73.07,142.9 -66.52,147 -59.56,151.06 -52.46,155.03 -45.11,158.63 -37.47,162.21 -29.63,165.51 -21.36,168.6 -13.08,171.49 -4.38,174.05 -129.07,73.71 4.55,-180.98 13.61,-178.99 22.54,-176.61 31.13,-174.3 39.62,-171.62 47.92,-168.77 56.07,-165.6 63.93,-162.26 71.78,-158.59 79.24,-154.71 86.55,-150.53 93.54,-145.92 100.38,-141.15 106.88,-135.93 113.06,-130.54 118.97,-124.82 124.61,-118.76 129.99,-112.56 134.91,-106.09 139.83,-99.44 144.27,-92.49 148.65,-85.47 152.66,-78.15 156.54,-70.8 160.16,-63.17 163.55,-55.33 166.75,-47.33 169.85,-39.22 172.61,-30.87 175.15,-22.26 177.55,-13.57 179.75,-4.55 -0.32,-0.09 z"
   id="path9" />
  <path
   class="fil1"
   d="m 2518.59,1012.7 c -35.02,13.34 -58.05,-7.41 -51.53,-46.35 6.65,-38.95 40.47,-81.33 75.4,-94.63 l -23.95,140.98 h 0.09 z m 1027.82,-325.41 -63.79,149.1 -31.94,0.18 -31.86,0.58 -31.72,0.9 -31.68,1.25 -31.54,1.69 -31.41,2 -31.36,2.33 -31.22,2.72 -31.13,3.04 -31.01,3.39 -30.83,3.71 -30.78,4.1 -30.69,4.51 -30.57,4.73 -30.34,5.03 -30.29,5.49 -30.2,5.72 -29.93,6.16 -29.9,6.42 -29.81,6.73 -29.62,7.09 -29.53,7.41 -29.28,7.68 -29.21,8.12 -29,8.33 -28.91,8.66 -28.78,8.97 -28.47,9.28 -28.45,9.54 -28.24,9.83 -28.15,10.17 -27.94,10.57 23.96,-140.98 29.53,-11.1 29.67,-10.71 29.81,-10.43 29.84,-10.09 30.11,-9.76 30.16,-9.46 30.29,-9.02 30.46,-8.79 30.62,-8.47 30.73,-8.08 30.78,-7.66 30.92,-7.45 31.1,-7.01 31.13,-6.69 31.27,-6.34 31.32,-6.03 31.54,-5.61 31.68,-5.4 31.72,-4.96 31.86,-4.54 31.94,-4.34 32.03,-3.88 32.07,-3.48 32.26,-3.12 32.3,-2.85 32.42,-2.45 32.58,-2.01 32.56,-1.66 32.7,-1.38 32.83,-0.94 32.79,-0.63 32.93,-0.18 -0.37,0.09 z m 1950.48,792.71 -108.22,132.28 -46.75,-44.48 -47.78,-43.4 -48.76,-42.3 -49.88,-41.12 -50.72,-40.06 -51.66,-38.72 -52.7,-37.61 -53.53,-36.27 -54.48,-35.16 -55.26,-33.9 -56.17,-32.53 -57.06,-31.24 -57.82,-29.88 -58.61,-28.5 -59.42,-27.3 -60.01,-25.8 -60.9,-24.44 -61.52,-22.93 -62.18,-21.55 -62.9,-20.03 -63.48,-18.6 -64.2,-17.05 -64.73,-15.52 -65.3,-13.96 -65.81,-12.37 -66.43,-10.79 -66.82,-9.16 -67.37,-7.66 -67.91,-5.89 -68.21,-4.29 -68.74,-2.54 -69.15,-0.89 63.8,-149.06 71.16,0.9 70.67,2.63 70.21,4.38 69.69,6.02 69.24,7.8 68.62,9.42 68.07,11.1 67.45,12.81 66.87,14.23 66.34,15.88 65.58,17.44 65.04,19.01 64.38,20.56 63.52,22 62.91,23.42 62.23,24.94 61.43,26.37 60.62,27.88 59.92,29.21 59.02,30.57 58.17,31.89 57.32,33.2 56.48,34.52 55.59,35.88 54.66,37.12 53.76,38.37 52.72,39.52 51.85,40.78 50.76,41.93 49.75,43.14 48.8,44.3 47.69,45.37 0.18,0.13 z m 0,0 c 19.41,18.83 10.89,63.85 -18.99,100.43 -29.84,36.53 -69.87,50.85 -89.23,31.93 l 108.22,-132.32 v -0.05 z m 531.97,3058.14 c 16.19,-41.07 55.05,-76.02 86.85,-77.9 31.73,-1.82 44.35,29.9 28.2,70.98 z m -1466.19,1608.53 19.77,-139.32 62.41,-26.89 61.57,-28.33 60.49,-29.79 59.61,-31.24 58.61,-32.64 57.59,-33.93 56.7,-35.37 55.59,-36.6 54.52,-37.95 53.44,-39.16 52.29,-40.39 51.08,-41.57 50.1,-42.73 48.85,-43.91 47.69,-45.11 46.44,-46.12 45.29,-47.23 44.12,-48.27 42.78,-49.37 41.62,-50.44 40.29,-51.49 39.04,-52.46 37.7,-53.45 36.36,-54.54 35.19,-55.47 33.73,-56.38 32.47,-57.34 31.01,-58.32 29.63,-59.31 28.24,-60.16 26.76,-61.13 25.3,-62.04 115.09,-6.88 -27.66,67.85 -29.4,67.09 -31.05,66.3 -32.7,65.39 -34.35,64.56 -35.97,63.67 -37.56,62.72 -39.08,61.7 -40.56,60.64 -42.07,59.6 -43.54,58.5 -44.88,57.34 -46.35,56.2 -47.56,54.9 -48.98,53.76 -50.24,52.37 -51.52,51.12 -52.68,49.75 -53.81,48.4 -54.92,47.02 -56.07,45.58 -57.15,44.08 -58.13,42.64 -59.16,41.19 -60.18,39.63 -61.07,38.03 -62.02,36.65 -62.9,34.94 -63.71,33.37 -64.6,31.75 -65.44,30.2 -66.16,28.4 h 0.09 z m 0,0 c -35.24,14.59 -59.37,-4.75 -53.94,-43.21 5.45,-38.48 38.46,-81.53 73.7,-96.11 l -19.77,139.32 z m -497.46,16.25 c 33.37,-6.4 50.19,21.22 37.65,61.95 -12.53,40.57 -49.74,78.85 -83.15,85.27 l 45.41,-147.22 z m -582.59,198.54 63.79,-149.08 16.64,-0.09 16.64,-0.18 16.64,-0.32 16.55,-0.38 16.55,-0.49 16.54,-0.61 16.52,-0.56 16.47,-0.78 16.45,-0.87 16.47,-0.96 16.38,-1.1 16.33,-1.16 16.38,-1.19 16.28,-1.34 16.24,-1.44 16.24,-1.48 16.15,-1.66 16.2,-1.75 16.15,-1.75 16.06,-1.86 16.11,-2.06 16.01,-2.06 15.97,-2.12 15.97,-2.21 15.97,-2.35 15.88,-2.44 15.83,-2.52 15.93,-2.62 15.74,-2.76 15.79,-2.78 15.74,-2.96 15.66,-3.01 -45.36,147.21 -16.34,3.14 -16.36,3.01 -16.52,2.91 -16.36,2.85 -16.6,2.69 -16.45,2.66 -16.55,2.53 -16.5,2.44 -16.55,2.31 -16.64,2.26 -16.68,2.12 -16.64,2.06 -16.73,1.91 -16.73,1.87 -16.78,1.75 -16.82,1.64 -16.86,1.58 -16.87,1.44 -16.82,1.34 -16.86,1.3 -16.96,1.14 -16.91,1.1 -16.91,0.96 -17,0.86 -17,0.77 -17.03,0.72 -17.05,0.56 -17.05,0.52 -17.17,0.4 -17.08,0.27 -17.14,0.2 -17.12,0.09 0.18,0.32 z m -734.77,-97.39 82.98,-146.59 21.37,5.7 21.55,5.58 21.59,5.36 21.6,5.22 21.73,5.1 21.81,4.83 21.81,4.72 21.9,4.57 22.04,4.27 21.99,4.19 22.08,4 22.22,3.81 22.17,3.6 22.31,3.4 22.31,3.31 22.4,3.1 22.4,2.91 22.48,2.73 22.48,2.55 22.52,2.35 22.71,2.12 22.71,2.05 22.79,1.75 22.76,1.66 22.88,1.43 22.89,1.28 22.98,1.07 22.98,0.87 22.97,0.7 23.07,0.49 23.07,0.29 23.21,0.09 -63.8,149.06 -23.83,-0.09 -23.74,-0.32 -23.83,-0.48 -23.64,-0.7 -23.65,-0.86 -23.6,-1.05 -23.51,-1.28 -23.47,-1.48 -23.47,-1.66 -23.37,-1.82 -23.38,-2.05 -23.24,-2.26 -23.19,-2.4 -23.15,-2.66 -23.1,-2.83 -22.94,-3 -22.97,-3.22 -22.89,-3.31 -22.89,-3.48 -22.75,-3.72 -22.71,-3.87 -22.7,-4.1 -22.54,-4.31 -22.48,-4.45 -22.52,-4.7 -22.4,-4.74 -22.27,-4.97 -22.22,-5.13 -22.21,-5.36 -22.13,-5.58 -21.99,-5.61 -22,-5.89 -0.18,-0.18 z m 0,0 c -27.25,-7.41 -30.87,-46.21 -7.94,-86.73 22.85,-40.52 63.62,-67.26 90.92,-59.87 l -82.98,146.59 z M 1789.59,1433.06 c -34.66,28.15 -69.52,26.54 -77.9,-3.43 -8.3,-29.98 13.08,-77.23 47.69,-105.33 z m 325.66,-355.87 2.19,128.31 -10.79,6.47 -10.67,6.37 -10.79,6.56 -10.71,6.51 -10.75,6.64 -10.62,6.6 -10.57,6.74 -10.66,6.69 -10.48,6.69 -10.48,6.83 -10.57,6.83 -10.4,6.92 -10.45,6.92 -10.31,6.99 -10.29,7.09 -10.22,7.09 -10.22,7.09 -10.27,7.23 -10.08,7.22 -10.17,7.27 -10.08,7.32 -10.04,7.4 -10.04,7.41 -9.9,7.41 -9.95,7.49 -9.95,7.59 -9.81,7.63 -9.85,7.59 -9.72,7.68 -9.72,7.68 -9.64,7.71 -9.64,7.76 -30.21,-108.73 10.53,-8.56 10.61,-8.47 10.62,-8.47 10.71,-8.35 10.7,-8.3 10.8,-8.3 10.84,-8.17 10.8,-8.21 10.89,-8.17 10.89,-8.07 10.88,-7.99 11.07,-7.98 10.98,-7.9 11.03,-7.89 11.1,-7.76 11.07,-7.76 11.19,-7.71 11.12,-7.59 11.19,-7.57 11.29,-7.64 11.33,-7.49 11.24,-7.41 11.28,-7.36 11.42,-7.32 11.38,-7.31 11.51,-7.23 11.47,-7.18 11.51,-7.13 11.56,-6.96 11.51,-7.01 11.68,-7.01 11.68,-6.92 v 0.18 z m 0,0 c 35.61,-20.92 65,-9.23 65.67,26.19 0.63,35.47 -27.69,81.1 -63.34,102.12 l -2.24,-128.31 z"
   id="path11" />
  
 </g>
</svg>
