<!DOCTYPE svg PUBLIC "-//W3C//DTD SVG 1.1//EN" "http://www.w3.org/Graphics/SVG/1.1/DTD/svg11.dtd">
<!-- Creator: CorelDRAW 2020 (64-Bit) -->
<svg xmlns="http://www.w3.org/2000/svg" xml:space="preserve" width="249.963mm" height="254.536mm" version="1.1" style="shape-rendering:geometricPrecision; text-rendering:geometricPrecision; image-rendering:optimizeQuality; fill-rule:evenodd; clip-rule:evenodd"
viewBox="0 0 24996.32 25453.55"
 xmlns:xlink="http://www.w3.org/1999/xlink"
 xmlns:xodm="http://www.corel.com/coreldraw/odm/2003">
 <defs>
  <style type="text/css">
   <![CDATA[
    .fil1 {fill:white;fill-rule:nonzero}
    .fil0 {fill:white;fill-rule:nonzero;fill-opacity:0.101961}
   ]]>
  </style>
 </defs>
 <g id="Слой_x0020_1">
  <metadata id="CorelCorpID_0Corel-Layer"/>
  <g id="_2132164896">
   <path class="fil0" d="M9812.1 73.2c-5383.92,0 -9748.44,4364.57 -9748.44,9748.45 0,5383.92 4364.52,9748.48 9748.44,9748.48 5383.88,0 9748.45,-4364.56 9748.45,-9748.48 0,-5383.88 -4364.57,-9748.45 -9748.45,-9748.45z"/>
   <path class="fil1" d="M19623.9 9785.49l-126.93 72.46 -12.62 -498.55 -37.4 -492.23 -61.66 -485.24 -85.24 -477.66 -108.37 -469.44 -130.84 -460.56 -152.65 -451.16 -173.92 -441.01 -194.45 -430.21 -214.6 -418.89 -233.89 -406.86 -252.73 -394.23 -270.97 -381 -288.57 -367.14 -305.5 -352.67 -321.84 -337.57 -337.65 -321.88 -352.7 -305.47 -367.21 -288.57 -381.11 -271.04 -394.44 -252.83 -407.03 -234.11 -419.1 -214.7 -430.5 -194.66 -441.29 -173.99 -451.55 -152.82 -461.12 -130.95 -470 -108.55 -478.37 -85.45 -486.09 -61.73 -493.15 -37.54 -499.61 -12.59 62.69 -146.55 503.7 12.74 497.03 37.82 489.62 62.19 481.68 86.04 473.29 109.19 464.08 131.8 454.3 153.7 444.08 175.05 433.11 195.83 421.57 215.9 409.43 235.44 396.63 254.28 383.29 272.59 369.25 290.16 354.69 307.24 339.54 323.67 323.71 339.59 307.31 354.78 290.3 369.33 272.55 383.4 254.39 396.8 235.55 409.65 216.01 421.78 195.93 433.35 175.19 444.36 153.92 454.8 131.97 464.68 109.4 473.85 86.15 482.42 62.3 490.54 37.92 497.88 12.7 504.72 -0.18 -0.18zm-9843.2 9857.85l62.69 -146.51 499.5 -12.67 492.68 -37.5 485.46 -61.63 477.38 -85.27 468.77 -108.19 459.57 -130.53 449.72 -152.15 439.31 -173.25 428.2 -193.54 416.53 -213.32 404.17 -232.38 391.24 -250.82 377.75 -268.64 363.68 -285.82 349.07 -302.33 333.84 -318.35 318.1 -333.62 301.87 -348.47 285.01 -362.73 267.68 -376.41 249.81 -389.61 231.31 -402.35 212.27 -414.51 192.69 -426.08 172.36 -437.2 151.52 -447.71 129.93 -457.7 107.77 -466.93 84.99 -475.76 61.45 -483.9 37.33 -491.35 12.62 -498.27 126.93 -72.46 -12.73 505.08 -37.92 498.72 -62.48 491.84 -86.5 484.36 -109.96 476.25 -132.79 467.51 -155.01 458.15 -176.67 448.2 -197.87 437.55 -218.27 426.19 -238.12 414.13 -257.39 401.39 -275.8 388.02 -293.76 373.84 -310.94 358.98 -327.38 343.4 -343.32 327.24 -358.31 310.44 -372.89 292.98 -386.65 274.96 -399.76 256.29 -412.33 237.07 -424.18 217.27 -435.47 196.85 -446.09 175.93 -456.14 154.38 -465.63 132.25 -474.41 109.51 -482.64 86.25 -490.4 62.27 -497.38 37.81 -503.8 12.74 -0.21 0.11zm-9780.5 -9785.5l126.92 -72.46 12.62 498.55 37.43 492.23 61.64 485.25 85.25 477.66 108.36 469.44 130.82 460.55 152.66 451.06 173.91 441.01 194.46 430.21 214.59 418.92 233.89 406.83 252.78 394.23 270.94 381.03 288.55 367.1 305.5 352.68 321.86 337.6 337.56 321.84 352.67 305.51 367.25 288.54 381.1 271.03 394.41 252.88 407.07 234.06 419.06 214.7 430.5 194.67 441.32 173.99 451.52 152.75 461.12 130.95 470 108.52 478.37 85.47 486.09 61.74 493.19 37.5 499.6 12.63 -62.69 146.54 -503.73 -12.73 -496.99 -37.78 -489.66 -62.23 -481.68 -86.05 -473.25 -109.22 -464.12 -131.8 -454.41 -153.67 -443.97 -175.04 -433.07 -195.83 -421.61 -215.94 -409.43 -235.44 -396.59 -254.28 -383.33 -272.56 -369.22 -290.19 -354.7 -307.31 -339.47 -323.71 -323.69 -339.55 -307.31 -354.78 -290.29 -369.33 -272.56 -383.4 -254.4 -396.8 -235.52 -409.65 -216 -421.78 -195.94 -433.35 -175.23 -444.36 -153.89 -454.8 -131.98 -464.68 -109.4 -473.85 -86.14 -482.42 -62.31 -490.54 -37.89 -497.88 -12.74 -504.71 0.2 0.45zm9843.19 -9857.84l-62.69 146.54 -499.5 12.63 -492.69 37.54 -485.42 61.63 -477.42 85.26 -468.73 108.13 -459.64 130.56 -449.68 152.19 -439.32 173.22 -428.2 193.6 -416.49 213.36 -404.17 232.34 -391.27 250.86 -377.75 268.68 -363.68 285.75 -349.06 302.36 -333.83 318.31 -318.12 333.62 -301.86 348.48 -285 362.72 -267.71 376.45 -249.79 389.61 -231.33 402.34 -212.27 414.52 -192.66 426.08 -172.37 437.2 -151.51 447.71 -129.97 457.66 -107.76 466.97 -85 475.76 -61.43 483.9 -37.33 491.35 -12.62 498.27 -126.92 72.42 12.72 -505.04 37.92 -498.72 62.49 -491.84 86.5 -484.36 109.97 -476.25 132.76 -467.51 155.04 -458.25 176.67 -448.21 197.83 -437.58 218.31 -426.19 238.13 -414.1 257.36 -401.42 275.81 -387.99 293.83 -373.8 310.95 -359.02 327.41 -343.4 343.2 -327.23 358.42 -310.48 372.88 -293.05 386.68 -274.96 399.77 -256.33 412.29 -237.03 424.18 -217.27 435.47 -196.85 446.09 -175.94 456.25 -154.37 465.59 -132.26 474.42 -109.5 482.67 -86.22 490.39 -62.33 497.39 -37.79 503.8 -12.73z"/>
   <path class="fil1" d="M2433.47 5819.88c-21.64,39.97 -61.56,67.56 -89.1,61.52 -27.58,-5.99 -32.36,-43.35 -10.64,-83.36l99.82 21.84 -0.08 0zm7409.92 -4512.91l-62.69 146.54 -298.13 5.15 -295.46 15.53 -292.55 25.54 -289.53 35.42 -286.35 45.19 -282.89 54.71 -279.4 64.14 -275.63 73.3 -271.71 82.34 -267.58 91.09 -263.31 99.84 -258.87 108.23 -254.21 116.49 -249.41 124.6 -244.44 132.47 -239.26 140.22 -234 147.75 -228.45 155.15 -222.82 162.31 -217.06 169.3 -211.14 176.11 -205 182.81 -198.68 189.19 -192.3 195.62 -185.67 201.75 -178.97 207.79 -172.17 213.6 -165.09 219.29 -157.92 224.93 -150.63 230.26 -143.18 235.51 -135.53 240.74 -99.83 -21.84 140.12 -248.85 148.07 -243.66 155.91 -238.3 163.55 -232.87 170.93 -227.08 178.22 -221.13 185.19 -214.94 192.07 -208.64 198.72 -202.14 205.17 -195.44 211.42 -188.52 217.46 -181.47 223.27 -174.2 229.02 -166.79 234.49 -159.18 239.86 -151.41 244.9 -143.55 249.9 -135.53 254.67 -127.21 259.26 -118.85 263.67 -110.25 268 -101.56 271.99 -92.64 275.91 -83.65 279.65 -74.36 283.21 -64.98 286.66 -55.42 289.88 -45.72 292.98 -35.92 295.81 -25.82 298.62 -15.63 301.1 -5.25 0.18 -0.11zm1258.25 92.74l-73.98 145.77 -38.17 -5.54 -38.27 -5.46 -38.32 -5.26 -38.38 -5.08 -38.38 -4.87 -38.45 -4.8 -38.49 -4.58 -38.56 -4.41 -38.56 -4.24 -38.66 -3.98 -38.7 -3.81 -38.74 -3.67 -38.87 -3.53 -38.85 -3.35 -38.94 -3.18 -38.98 -2.96 -39.02 -2.75 -39.05 -2.61 -39.16 -2.47 -39.12 -2.29 -39.27 -2.12 -39.23 -1.91 -39.23 -1.72 -39.33 -1.52 -39.44 -1.34 -39.44 -1.17 -39.41 -1.05 -39.54 -0.74 -39.52 -0.67 -39.61 -0.5 -39.65 -0.28 -39.69 -0.11 62.65 -146.54 40.11 0.11 40.01 0.28 40 0.49 39.94 0.67 39.9 0.85 39.79 1.06 39.83 1.27 39.72 1.3 39.72 1.55 39.62 1.7 39.62 1.94 39.51 2.11 39.54 2.3 39.45 2.47 39.4 2.68 39.37 2.78 39.3 2.97 39.26 3.14 39.23 3.35 39.16 3.56 39.12 3.74 39.06 3.92 38.94 4.02 38.99 4.2 38.84 4.41 38.84 4.58 38.8 4.8 38.74 4.98 38.66 5.15 38.67 5.29 38.56 5.43 38.48 5.64 0.18 0zm1187.84 265.51l-83.29 143.65 -35.88 -10.73 -35.88 -10.51 -35.98 -10.34 -36.09 -10.23 -36.2 -10.05 -36.16 -9.99 -36.26 -9.73 -36.37 -9.67 -36.37 -9.45 -36.48 -9.32 -36.44 -9.1 -36.59 -8.99 -36.65 -8.79 -36.65 -8.71 -36.73 -8.54 -36.86 -8.29 -36.87 -8.15 -36.93 -8.04 -36.94 -7.87 -37.04 -7.65 -37.15 -7.55 -37.22 -7.38 -37.21 -7.16 -37.33 -7.09 -37.32 -6.88 -37.43 -6.7 -37.43 -6.53 -37.5 -6.38 -37.64 -6.25 -37.61 -6.03 -37.68 -5.82 -37.74 -5.64 73.97 -145.77 38.03 5.75 38 5.93 37.89 6.13 37.88 6.21 37.82 6.39 37.82 6.63 37.71 6.77 37.57 6.92 37.64 7.09 37.5 7.23 37.54 7.51 37.39 7.55 37.33 7.77 37.36 7.83 37.22 8.04 37.11 8.22 37.14 8.43 37.05 8.5 36.93 8.72 36.97 8.92 36.83 9.07 36.76 9.21 36.76 9.34 36.66 9.49 36.54 9.67 36.59 9.88 36.44 9.95 36.37 10.12 36.37 10.37 36.27 10.52 36.16 10.61 36.09 10.8 0.21 0.11zm2124.04 978.21l-97.76 137.06 -60.82 -38.77 -61.27 -38.17 -61.63 -37.72 -62.06 -37.21 -62.26 -36.66 -62.73 -36.19 -62.97 -35.6 -63.32 -35.13 -63.64 -34.54 -64.07 -34.08 -64.31 -33.48 -64.59 -32.95 -64.98 -32.42 -65.27 -31.89 -65.58 -31.29 -65.83 -30.73 -66.21 -30.23 -66.54 -29.67 -66.81 -29.1 -67.1 -28.51 -67.35 -27.97 -67.66 -27.34 -67.98 -26.81 -68.23 -26.22 -68.54 -25.64 -68.79 -25.09 -69.11 -24.51 -69.36 -23.92 -69.67 -23.36 -69.99 -22.79 -70.14 -22.08 -70.45 -21.55 83.26 -143.65 71.01 21.73 70.74 22.29 70.45 22.9 70.16 23.42 69.85 24.13 69.57 24.7 69.29 25.25 69.04 25.86 68.79 26.39 68.44 26.99 68.12 27.55 67.87 28.15 67.56 28.72 67.27 29.31 67 29.85 66.71 30.44 66.32 31.01 66.04 31.47 65.76 32.07 65.37 32.63 65.12 33.2 64.7 33.72 64.38 34.26 64.1 34.71 63.78 35.31 63.36 35.81 63.04 36.37 62.69 36.94 62.37 37.43 62.06 37.89 61.63 38.48 61.34 38.95 -0.17 0.28zm0 0c22.29,14.36 18.55,56.69 -8.47,94.48 -26.95,37.81 -66.96,56.86 -89.36,42.47l97.72 -137.02 0.11 0.07zm1404.23 13040.36c31.93,-32.59 69.53,-39.68 83.89,-15.87 14.39,23.95 0.11,69.78 -31.86,102.44l-51.96 -86.57 -0.07 0zm-6037.12 2652.36l62.65 -146.51 219.78 -2.78 218.27 -8.4 216.92 -13.9 215.19 -19.44 213.65 -24.8 211.87 -30.05 210.08 -35.28 208.28 -40.5 206.34 -45.54 204.33 -50.56 202.21 -55.52 200.13 -60.4 197.95 -65.12 195.61 -69.99 193.33 -74.55 190.85 -79.16 188.35 -83.64 185.87 -88.09 183.2 -92.39 180.48 -96.81 177.73 -100.96 174.95 -105.06 171.97 -109.22 169.06 -113.13 165.94 -117.06 162.88 -120.86 159.74 -124.7 156.56 -128.45 153.25 -132.08 149.89 -135.61 146.51 -139.17 142.98 -142.63 51.97 86.57 -147.78 147.29 -151.31 143.65 -154.66 139.95 -158.01 136.06 -161.18 132.26 -164.32 128.38 -167.47 124.28 -170.46 120.23 -173.43 116.06 -176.28 111.9 -179.17 107.67 -181.86 103.29 -184.5 98.85 -187.12 94.44 -189.62 89.89 -192.08 85.26 -194.49 80.61 -196.67 75.92 -198.97 71.09 -201.15 66.21 -203.31 61.39 -205.28 56.33 -207.29 51.3 -209.13 46.14 -211.03 40.96 -212.76 35.7 -214.49 30.44 -216.08 25.09 -217.66 19.61 -219.18 14.08 -220.59 8.5 -221.94 2.86 0.5 0.1zm-601.17 -20.92l68.23 -146.36 18.48 1.23 18.49 1.23 18.48 1.17 18.45 1.16 18.49 1.13 18.45 1.06 18.48 1.02 18.56 0.99 18.56 0.95 18.59 0.96 18.55 0.88 18.56 0.84 18.59 0.78 18.56 0.74 18.59 0.67 18.66 0.71 18.56 0.63 18.66 0.57 18.66 0.6 18.66 0.49 18.67 0.46 18.66 0.46 18.66 0.42 18.66 0.39 18.66 0.25 18.67 0.28 18.66 0.21 18.76 0.18 18.74 0.21 18.77 0.1 18.76 0.11 18.77 0 -62.69 146.51 -18.98 0 -18.94 -0.11 -18.95 -0.1 -18.94 -0.18 -18.94 -0.21 -18.88 -0.14 -18.84 -0.32 -18.83 -0.28 -18.88 -0.39 -18.84 -0.35 -18.87 -0.5 -18.84 -0.49 -18.87 -0.46 -18.84 -0.6 -18.84 -0.56 -18.8 -0.67 -18.73 -0.67 -18.77 -0.67 -18.73 -0.78 -18.77 -0.78 -18.77 -0.84 -18.66 -0.85 -18.77 -0.95 -18.66 -0.99 -18.66 -1.02 -18.67 -1.06 -18.66 -1.06 -18.66 -1.16 -18.66 -1.13 -18.66 -1.24 -18.67 -1.23 -18.66 -1.24 0.18 0zm0 0c-29.56,-2.11 -38.17,-36.51 -19.33,-76.97 18.87,-40.4 58.1,-71.51 87.7,-69.39l-68.26 146.36 -0.11 0zm-1045.99 -299.72c27.77,5.75 32.78,42.9 11.29,82.91 -21.41,40.11 -61.31,67.87 -89,62.12l77.71 -145.1 0 0.07zm-3578.75 -1481.88l102.02 -133.98 94.37 72.99 95.5 71.68 96.48 70.35 97.51 69 98.6 67.66 99.55 66.22 100.55 64.91 101.56 63.57 102.52 62.13 103.43 60.64 104.32 59.23 105.3 57.82 106.15 56.3 107.07 54.82 107.95 53.31 108.83 51.86 109.68 50.34 110.46 48.82 111.3 47.28 112.15 45.65 112.96 44.13 113.7 42.51 114.44 40.85 115.25 39.33 115.99 37.72 116.67 35.98 117.44 34.36 118.11 32.74 118.74 30.97 119.45 29.32 120.12 27.55 120.79 25.82 -77.71 145.1 -121.75 -26.11 -121.07 -27.86 -120.37 -29.53 -119.66 -31.33 -118.96 -32.91 -118.28 -34.65 -117.55 -36.3 -116.77 -37.89 -116.06 -39.51 -115.32 -41.27 -114.48 -42.76 -113.7 -44.45 -112.96 -46 -112.08 -47.55 -111.3 -49.15 -110.42 -50.58 -109.61 -52.15 -108.62 -53.72 -107.77 -55.21 -106.89 -56.66 -105.94 -58.17 -104.99 -59.66 -104.14 -61.06 -103.19 -62.52 -102.2 -63.88 -101.17 -65.41 -100.19 -66.67 -99.27 -68.05 -98.18 -69.5 -97.16 -70.84 -96.06 -72.18 -95.04 -73.45 -0.1 0zm0 0c-20.89,-16.4 -14.96,-59.65 13.19,-96.69 28.15,-37.04 67.95,-53.66 88.73,-37.29l-102.03 133.98 0.11 0zm-1132.81 -1323.55c17.43,20.57 6.89,65.55 -23.53,100.3 -30.44,34.85 -69.19,46.42 -86.62,25.82l110.15 -126.12zm-631.17 -556.26l113.78 -121.46 15.13 22.01 15.22 21.95 15.31 21.9 15.31 21.81 15.42 21.83 15.5 21.73 15.51 21.63 15.59 21.63 15.7 21.55 15.79 21.52 15.78 21.41 15.9 21.49 15.99 21.3 15.97 21.38 16.08 21.21 16.18 21.27 16.18 21.16 16.26 21.14 16.36 21.06 16.46 20.99 16.47 20.92 16.56 20.88 16.65 20.85 16.65 20.78 16.76 20.74 16.74 20.67 16.85 20.57 16.92 20.64 16.96 20.46 17.04 20.5 17.11 20.35 17.15 20.39 -110.16 126.16 -17.32 -20.5 -17.23 -20.57 -17.13 -20.6 -17.14 -20.67 -17.03 -20.68 -16.94 -20.77 -16.95 -20.75 -16.84 -20.88 -16.74 -20.92 -16.75 -20.99 -16.66 -21.06 -16.55 -21.03 -16.57 -21.16 -16.44 -21.14 -16.37 -21.27 -16.28 -21.34 -16.26 -21.34 -16.18 -21.42 -16.08 -21.45 -16.08 -21.52 -15.99 -21.52 -15.87 -21.66 -15.91 -21.62 -15.79 -21.73 -15.69 -21.73 -15.7 -21.84 -15.6 -21.91 -15.5 -21.91 -15.41 -22.01 -15.41 -22.01 -15.32 -22.12 -15.2 -22.12 -0.19 -0.18zm0 0c-15.5,-22.68 -2.69,-68.22 28.72,-101.74 31.37,-33.51 69.46,-42.3 84.97,-19.72l-113.8 121.46 0.11 0zm-398.34 -970.56c13.2,25.08 -2.48,71.23 -34.93,102.91 -32.44,31.75 -69.49,37.11 -82.68,12.03l117.61 -114.94zm-481.13 -673.21l120.6 -108.44 10.04 25.08 10.15 24.98 10.25 24.98 10.33 24.97 10.34 24.91 10.43 24.87 10.53 24.8 10.62 24.77 10.72 24.69 10.82 24.69 10.9 24.7 10.93 24.62 10.98 24.56 11.12 24.51 11.19 24.52 11.19 24.49 11.3 24.41 11.4 24.41 11.48 24.31 11.57 24.3 11.58 24.24 11.68 24.2 11.77 24.09 11.87 24.13 11.86 24.13 11.98 24.03 12.06 24.02 12.15 23.92 12.25 23.92 12.25 23.85 12.35 23.81 12.44 23.74 -117.61 114.94 -12.54 -23.92 -12.46 -24.03 -12.33 -24.02 -12.35 -24.03 -12.25 -24.13 -12.17 -24.2 -12.06 -24.23 -11.94 -24.2 -11.98 -24.31 -11.86 -24.38 -11.77 -24.41 -11.68 -24.41 -11.68 -24.52 -11.58 -24.48 -11.49 -24.62 -11.38 -24.59 -11.3 -24.7 -11.3 -24.69 -11.19 -24.7 -11.09 -24.76 -11.01 -24.8 -10.9 -24.87 -10.93 -24.87 -10.82 -24.98 -10.71 -25.01 -10.64 -25.05 -10.51 -25.08 -10.53 -25.08 -10.43 -25.19 -10.35 -25.16 -10.22 -25.25 -10.15 -25.26 0.08 -0.22zm0 0c-10.89,-27.19 7.3,-73.58 40.59,-103.47 33.31,-29.95 69.19,-32.13 80.01,-4.86l-120.6 108.41 0 -0.08zm-227.77 -1186.28c7.45,30.06 -14.18,76.38 -48.44,103.47 -34.26,27.06 -68.03,24.59 -75.6,-5.47l123.94 -98 0.1 0zm-290.46 -752.72l125.84 -88.55 3.82 26.7 3.92 26.71 4.04 26.71 4.09 26.59 4.23 26.6 4.3 26.6 4.41 26.53 4.4 26.53 4.49 26.5 4.6 26.49 4.69 26.42 4.78 26.42 4.88 26.39 4.98 26.46 4.98 26.32 5.17 26.32 5.17 26.31 5.26 26.21 5.36 26.22 5.46 26.24 5.55 26.14 5.55 26.11 5.64 26.1 5.75 26.07 5.83 26.04 5.94 26.03 6.03 26 6.12 25.97 6.14 25.93 6.21 25.82 6.32 25.86 6.41 25.82 -123.94 98.04 -6.52 -26.14 -6.4 -26.14 -6.31 -26.21 -6.22 -26.25 -6.15 -26.21 -6.1 -26.25 -6.04 -26.32 -5.94 -26.28 -5.84 -26.42 -5.73 -26.42 -5.65 -26.43 -5.55 -26.38 -5.46 -26.53 -5.45 -26.53 -5.37 -26.6 -5.25 -26.49 -5.17 -26.64 -5.08 -26.6 -4.98 -26.6 -4.97 -26.7 -4.88 -26.71 -4.8 -26.77 -4.68 -26.82 -4.59 -26.81 -4.51 -26.88 -4.38 -26.88 -4.31 -26.92 -4.22 -26.88 -4.2 -26.99 -4.12 -26.98 -4.03 -26.99 -3.91 -27.09 0.39 0.21zm0 0c-4.61,-32.28 19.8,-78.21 54.54,-102.7 34.74,-24.41 66.61,-18.09 71.21,14.08l-125.86 88.51 0.11 0.11z"/>
   <path class="fil1" d="M7149.33 16258.47c24.98,10.44 25.29,50.52 0.78,89.67 -24.63,39.13 -64.81,62.37 -89.79,51.93l89.01 -141.5 0 -0.1zm-845.4 -227.97l95.15 -138.6 22.68 12.7 22.79 12.66 22.79 12.63 22.75 12.56 22.9 12.42 22.93 12.34 23 12.25 23.07 12.17 23.07 12.06 23.15 11.96 23.17 11.96 23.25 11.89 23.25 11.75 23.35 11.67 23.36 11.57 23.46 11.5 23.42 11.36 23.57 11.43 23.63 11.29 23.64 11.19 23.64 11.11 23.74 11.01 23.74 10.9 23.81 10.79 23.85 10.73 23.92 10.65 23.92 10.51 24.02 10.55 24.02 10.41 24.13 10.33 24.13 10.27 24.2 10.12 -89 141.54 -24.41 -10.23 -24.31 -10.34 -24.31 -10.33 -24.23 -10.52 -24.2 -10.55 -24.13 -10.61 -24.1 -10.73 -24.06 -10.83 -23.99 -10.86 -23.91 -11.05 -23.96 -11.07 -23.81 -11.19 -23.85 -11.32 -23.7 -11.4 -23.75 -11.36 -23.63 -11.46 -23.67 -11.64 -23.53 -11.68 -23.53 -11.75 -23.46 -11.85 -23.46 -11.99 -23.36 -12.03 -23.35 -12.17 -23.25 -12.18 -23.25 -12.2 -23.18 -12.38 -23.07 -12.42 -23.03 -12.56 -23.07 -12.6 -23.01 -12.77 -22.86 -12.7 -22.86 -12.84 -0.21 -0.07zm0 0c-23.25,-13.12 -20.74,-54.75 5.58,-93.06 26.21,-38.28 66.42,-58.67 89.57,-45.54l-95.15 138.6zm3476.77 -13181.96c-30.45,0 -41.14,-32.85 -23.81,-73.2 17.28,-40.5 56.09,-73.24 86.5,-73.24l-62.69 146.54 0 -0.1zm5885.32 2905.65l-113.59 121.64 -121.18 -169.58 -126.05 -165.74 -130.85 -161.96 -135.5 -157.9 -140.02 -153.81 -144.53 -149.58 -148.8 -145.31 -153.07 -140.86 -157.23 -136.28 -161.26 -131.69 -165.2 -126.9 -169.02 -122.13 -172.65 -117.15 -176.28 -112.19 -179.85 -107 -183.16 -101.7 -186.55 -96.42 -189.69 -90.91 -192.76 -85.26 -195.72 -79.62 -198.58 -73.88 -201.4 -67.98 -204.04 -62.02 -206.63 -55.88 -209.02 -49.67 -211.42 -43.35 -213.6 -37.04 -215.73 -30.55 -217.73 -23.92 -219.64 -17.22 -221.47 -10.44 -223.17 -3.53 62.65 -146.51 225.71 3.53 223.94 10.51 222.04 17.43 220.03 24.13 217.94 30.8 215.69 37.32 213.43 43.85 211.03 50.13 208.46 56.38 205.88 62.51 203.17 68.51 200.3 74.47 197.38 80.29 194.38 86.04 191.21 91.58 188.06 97.16 184.65 102.48 181.26 107.78 177.73 113.03 174.06 118.11 170.28 123.08 166.44 127.95 162.53 132.75 158.36 137.44 154.3 141.93 149.97 146.43 145.66 150.75 141.18 155.04 136.56 159.18 131.87 163.16 127.14 167.18 122.21 171.02 -0.11 0.39zm0 0c15.59,22.61 2.89,68.09 -28.5,101.67 -31.44,33.59 -69.5,42.48 -85.09,19.9l113.59 -121.64 0 0.07z"/>
   <path class="fil0" d="M17947.12 19248.08c-1506.65,0 -2728.03,1221.39 -2728.03,2727.99 0,1506.65 1221.38,2728.01 2728.03,2728.01 1506.6,0 2727.99,-1221.36 2727.99,-2728.01 0,-1506.6 -1221.39,-2727.99 -2727.99,-2727.99z"/>
   <path class="fil1" d="M20726.12 21947l-102.06 58.26 -3.45 -137.87 -10.41 -136.28 -17.07 -134.41 -23.64 -132.43 -30.06 -130.25 -36.3 -127.88 -42.44 -125.24 -48.26 -122.51 -54.04 -119.56 -59.66 -116.49 -65.08 -113.13 -70.28 -109.65 -75.39 -105.97 -80.25 -102.2 -85.02 -98.14 -89.61 -93.91 -93.98 -89.61 -98.14 -85.09 -102.27 -80.4 -106.08 -75.46 -109.79 -70.34 -113.31 -65.16 -116.66 -59.72 -119.77 -54.19 -122.8 -48.4 -125.56 -42.51 -128.27 -36.41 -130.7 -30.2 -132.96 -23.7 -135.15 -17.18 -137.02 -10.37 -138.71 -3.53 50.44 -117.87 142.03 3.6 140.13 10.62 137.93 17.57 135.75 24.24 133.25 30.79 130.63 37.12 127.88 43.25 124.96 49.28 121.84 55.14 118.64 60.75 115.19 66.21 111.54 71.51 107.88 76.66 103.83 81.6 99.76 86.5 95.57 91.01 91.05 95.54 86.47 99.9 81.7 103.9 76.76 107.95 71.58 111.69 66.29 115.32 60.78 118.81 55.25 122.1 49.32 125.27 43.42 128.24 37.22 131.09 30.87 133.74 24.31 136.28 17.64 138.64 10.68 140.83 3.6 142.85 0 -0.2zm-2804.26 2816.06l50.41 -117.87 138.64 -3.54 136.67 -10.4 134.48 -17.09 132.18 -23.63 129.75 -29.95 127 -36.1 124.18 -42.03 121.14 -47.75 117.83 -53.26 114.48 -58.67 111.02 -63.8 107.24 -68.76 103.4 -73.52 99.38 -78.08 95.21 -82.51 91.02 -86.7 86.61 -90.86 82.05 -94.73 77.47 -98.63 72.75 -102.32 67.91 -105.94 62.97 -109.49 57.82 -112.93 52.56 -116.24 47.13 -119.47 41.49 -122.58 35.66 -125.47 29.6 -128.26 23.43 -130.88 16.93 -133.35 10.34 -135.58 3.45 -137.62 102.06 -58.29 -3.6 143.11 -10.76 141.48 -17.81 139.73 -24.62 137.81 -31.33 135.74 -37.89 133.43 -44.34 130.94 -50.56 128.34 -56.76 125.4 -62.65 122.33 -68.48 119.04 -73.94 115.41 -79.37 111.62 -84.56 107.44 -89.36 103.26 -94.09 98.69 -98.53 93.91 -102.8 89.03 -106.68 83.89 -110.56 78.62 -114.12 73.13 -117.55 67.6 -120.72 61.8 -123.75 55.99 -126.65 49.95 -129.33 43.71 -131.87 37.46 -134.3 31 -136.49 24.4 -138.5 17.63 -140.41 10.71 -142.13 3.63 0.25 0.07zm-2753.86 -2757.8l102.06 -58.26 3.46 137.87 10.41 136.26 17.07 134.42 23.64 132.39 30.02 130.3 36.33 127.85 42.44 125.26 48.26 122.47 54.05 119.59 59.65 116.47 65.06 113.18 70.3 109.62 75.36 106 80.29 102.18 85.02 98.16 89.6 93.91 93.98 89.6 98.15 85.05 102.27 80.38 106.08 75.45 109.78 70.39 113.31 65.11 116.63 59.74 119.81 54.23 122.76 48.4 125.59 42.51 128.27 36.42 130.71 30.18 132.96 23.69 135.11 17.17 137.02 10.4 138.75 3.54 -50.45 117.87 -141.99 -3.63 -140.16 -10.61 -137.94 -17.57 -135.75 -24.25 -133.24 -30.8 -130.63 -37.1 -127.89 -43.27 -124.95 -49.26 -121.85 -55.13 -118.67 -60.74 -115.15 -66.21 -111.55 -71.52 -107.88 -76.65 -103.82 -81.62 -99.8 -86.47 -95.57 -91.05 -91.01 -95.54 -86.51 -99.87 -81.66 -103.94 -76.77 -107.93 -71.58 -111.69 -66.28 -115.34 -60.82 -118.79 -55.21 -122.09 -49.36 -125.27 -43.39 -128.26 -37.22 -131.08 -30.86 -133.74 -24.31 -136.26 -17.64 -138.66 -10.69 -140.81 -3.6 -142.9 0 0.25zm2804.27 -2816.06l-50.41 117.87 -138.68 3.53 -136.67 10.37 -134.44 17.11 -132.19 23.63 -129.75 29.95 -127.03 36.13 -124.14 42.01 -121.15 47.7 -117.83 53.3 -114.51 58.67 -110.98 63.82 -107.25 68.76 -103.4 73.51 -99.37 78.07 -95.22 82.52 -91.01 86.68 -86.65 90.84 -82.05 94.79 -77.44 98.6 -72.74 102.34 -67.91 105.94 -63.01 109.43 -57.78 113 -52.6 116.24 -47.1 119.45 -41.48 122.59 -35.67 125.44 -29.63 128.27 -23.43 130.88 -16.89 133.32 -10.34 135.61 -3.46 137.63 -102.06 58.29 3.6 -143.11 10.76 -141.54 17.82 -139.66 24.62 -137.83 31.33 -135.71 37.89 -133.46 44.34 -130.95 50.55 -128.31 56.76 -125.41 62.66 -122.34 68.44 -119.03 73.97 -115.39 79.38 -111.62 84.52 -107.49 89.4 -103.23 94.08 -98.7 98.54 -93.91 102.79 -89.01 106.68 -83.89 110.57 -78.63 114.08 -73.14 117.55 -67.59 120.72 -61.8 123.79 -55.99 126.65 -49.95 129.33 -43.75 131.86 -37.43 134.31 -31.01 136.49 -24.41 138.5 -17.6 140.4 -10.73 142.14 -3.6 -0.25 -0.07z"/>
   <path class="fil1" d="M17159.61 19990.01c-27.69,10.55 -45.9,-5.86 -40.75,-36.65 5.26,-30.8 32,-64.31 59.62,-74.83l-18.94 111.48 0.07 0zm812.76 -257.32l-50.44 117.9 -25.26 0.14 -25.19 0.46 -25.08 0.71 -25.05 0.99 -24.94 1.34 -24.84 1.58 -24.8 1.84 -24.69 2.15 -24.62 2.4 -24.52 2.68 -24.38 2.93 -24.34 3.24 -24.27 3.57 -24.17 3.74 -23.99 3.98 -23.95 4.34 -23.88 4.52 -23.67 4.87 -23.64 5.08 -23.57 5.32 -23.42 5.61 -23.35 5.86 -23.15 6.07 -23.1 6.42 -22.93 6.59 -22.86 6.85 -22.76 7.09 -22.51 7.34 -22.5 7.54 -22.33 7.77 -22.26 8.04 -22.09 8.36 18.95 -111.48 23.35 -8.78 23.46 -8.47 23.57 -8.25 23.6 -7.98 23.81 -7.72 23.85 -7.48 23.95 -7.13 24.09 -6.95 24.21 -6.7 24.3 -6.39 24.34 -6.06 24.45 -5.89 24.59 -5.54 24.62 -5.29 24.73 -5.01 24.77 -4.77 24.94 -4.44 25.05 -4.27 25.08 -3.92 25.19 -3.59 25.26 -3.43 25.33 -3.07 25.36 -2.75 25.51 -2.47 25.54 -2.25 25.64 -1.94 25.76 -1.59 25.75 -1.31 25.86 -1.09 25.96 -0.74 25.93 -0.5 26.04 -0.14 -0.29 0.07zm1542.38 626.85l-85.58 104.6 -36.97 -35.17 -37.78 -34.32 -38.56 -33.45 -39.44 -32.52 -40.11 -31.68 -40.85 -30.62 -41.67 -29.74 -42.33 -28.68 -43.08 -27.8 -43.7 -26.81 -44.42 -25.72 -45.12 -24.7 -45.72 -23.63 -46.35 -22.54 -46.99 -21.59 -47.45 -20.4 -48.16 -19.33 -48.65 -18.13 -49.17 -17.04 -49.74 -15.84 -50.2 -14.71 -50.77 -13.48 -51.19 -12.27 -51.64 -11.04 -52.04 -9.78 -52.53 -8.53 -52.84 -7.24 -53.27 -6.06 -53.7 -4.66 -53.94 -3.39 -54.36 -2.01 -54.68 -0.7 50.45 -117.87 56.27 0.71 55.88 2.08 55.52 3.46 55.11 4.76 54.75 6.17 54.26 7.45 53.83 8.78 53.34 10.13 52.88 11.25 52.46 12.56 51.86 13.79 51.43 15.03 50.91 16.26 50.23 17.4 49.75 18.52 49.21 19.72 48.58 20.85 47.94 22.05 47.38 23.1 46.67 24.17 46 25.22 45.33 26.25 44.66 27.3 43.96 28.37 43.22 29.35 42.51 30.34 41.69 31.25 41 32.25 40.14 33.16 39.34 34.11 38.59 35.03 37.71 35.88 0.14 0.1zm0 0c15.35,14.89 8.61,50.49 -15.02,79.42 -23.6,28.89 -55.25,40.21 -70.56,25.25l85.58 -104.63 0 -0.04zm420.66 2418.27c12.8,-32.48 43.53,-60.11 68.68,-61.6 25.09,-1.44 35.07,23.64 22.3,56.13l-90.98 5.47zm-1159.41 1271.97l15.63 -110.17 49.35 -21.26 48.69 -22.4 47.83 -23.56 47.14 -24.7 46.35 -25.81 45.54 -26.83 44.84 -27.97 43.96 -28.94 43.11 -30.01 42.26 -30.97 41.35 -31.94 40.39 -32.87 39.62 -33.79 38.63 -34.72 37.71 -35.67 36.72 -36.47 35.81 -37.35 34.89 -38.17 33.83 -39.04 32.91 -39.89 31.86 -40.72 30.87 -41.48 29.81 -42.27 28.75 -43.13 27.83 -43.86 26.67 -44.58 25.68 -45.34 24.52 -46.12 23.43 -46.9 22.33 -47.57 21.16 -48.34 20.01 -49.06 91.01 -5.44 -21.87 53.65 -23.25 53.05 -24.55 52.43 -25.86 51.71 -27.16 51.05 -28.44 50.35 -29.7 49.6 -30.9 48.79 -32.07 47.95 -33.27 47.13 -34.43 46.26 -35.49 45.34 -36.65 44.44 -37.61 43.41 -38.73 42.51 -39.73 41.41 -40.74 40.42 -41.66 39.34 -42.55 38.27 -43.43 37.18 -44.34 36.04 -45.19 34.86 -45.97 33.72 -46.78 32.57 -47.59 31.34 -48.29 30.07 -49.04 28.98 -49.74 27.63 -50.38 26.39 -51.08 25.11 -51.75 23.88 -52.32 22.46 0.07 0zm0 0c-27.87,11.54 -46.95,-3.76 -42.65,-34.17 4.31,-30.43 30.41,-64.47 58.28,-76l-15.63 110.17zm-393.38 12.85c26.39,-5.06 39.69,16.78 29.77,48.99 -9.91,32.08 -39.33,62.35 -65.75,67.43l35.91 -116.42 0.07 0zm-460.69 157l50.44 -117.89 13.16 -0.07 13.16 -0.14 13.16 -0.25 13.09 -0.3 13.09 -0.39 13.08 -0.48 13.06 -0.44 13.02 -0.62 13.01 -0.69 13.02 -0.76 12.95 -0.87 12.91 -0.92 12.95 -0.94 12.87 -1.06 12.84 -1.14 12.84 -1.17 12.77 -1.31 12.81 -1.38 12.77 -1.38 12.7 -1.47 12.74 -1.63 12.66 -1.63 12.63 -1.68 12.63 -1.75 12.63 -1.86 12.56 -1.93 12.52 -1.99 12.6 -2.07 12.45 -2.18 12.49 -2.2 12.45 -2.34 12.38 -2.38 -35.87 116.41 -12.92 2.48 -12.94 2.38 -13.06 2.3 -12.94 2.25 -13.13 2.13 -13.01 2.1 -13.09 2 -13.05 1.93 -13.09 1.83 -13.16 1.79 -13.19 1.68 -13.16 1.63 -13.23 1.51 -13.23 1.48 -13.27 1.38 -13.3 1.3 -13.33 1.25 -13.34 1.14 -13.3 1.06 -13.33 1.03 -13.41 0.9 -13.37 0.87 -13.37 0.76 -13.44 0.68 -13.44 0.61 -13.47 0.57 -13.48 0.44 -13.48 0.41 -13.58 0.32 -13.51 0.21 -13.55 0.16 -13.54 0.07 0.14 0.25zm-581.03 -77.01l65.62 -115.92 16.9 4.51 17.04 4.41 17.07 4.24 17.08 4.13 17.18 4.03 17.25 3.82 17.25 3.73 17.32 3.61 17.43 3.38 17.39 3.31 17.46 3.16 17.57 3.01 17.53 2.85 17.64 2.69 17.64 2.62 17.71 2.45 17.71 2.3 17.78 2.16 17.78 2.02 17.81 1.86 17.96 1.68 17.96 1.62 18.02 1.38 18 1.31 18.09 1.13 18.1 1.01 18.17 0.85 18.17 0.69 18.16 0.55 18.24 0.39 18.24 0.23 18.35 0.07 -50.45 117.87 -18.84 -0.07 -18.77 -0.25 -18.84 -0.38 -18.69 -0.55 -18.7 -0.68 -18.66 -0.83 -18.59 -1.01 -18.56 -1.17 -18.56 -1.31 -18.48 -1.44 -18.49 -1.62 -18.38 -1.79 -18.34 -1.9 -18.31 -2.1 -18.27 -2.24 -18.14 -2.37 -18.16 -2.55 -18.1 -2.62 -18.1 -2.75 -17.99 -2.94 -17.96 -3.06 -17.95 -3.24 -17.82 -3.41 -17.78 -3.52 -17.81 -3.72 -17.71 -3.75 -17.61 -3.93 -17.57 -4.06 -17.56 -4.24 -17.5 -4.41 -17.39 -4.44 -17.4 -4.66 -0.14 -0.14zm0 0c-21.55,-5.86 -24.41,-36.54 -6.28,-68.58 18.07,-32.04 50.31,-53.19 71.9,-47.34l-65.62 115.92zm-757.76 -3820.19c-27.41,22.26 -54.97,20.99 -61.6,-2.71 -6.56,-23.71 10.34,-61.07 37.71,-83.29l23.89 86zm257.52 -281.41l1.73 101.46 -8.53 5.12 -8.44 5.04 -8.53 5.19 -8.47 5.15 -8.5 5.25 -8.4 5.22 -8.36 5.33 -8.43 5.29 -8.29 5.29 -8.29 5.4 -8.36 5.4 -8.22 5.47 -8.26 5.47 -8.15 5.53 -8.14 5.61 -8.08 5.61 -8.08 5.61 -8.12 5.72 -7.97 5.71 -8.04 5.75 -7.97 5.79 -7.94 5.85 -7.94 5.86 -7.83 5.86 -7.87 5.92 -7.87 6 -7.76 6.03 -7.79 6 -7.69 6.07 -7.69 6.07 -7.62 6.1 -7.62 6.14 -23.89 -85.98 8.33 -6.77 8.39 -6.7 8.4 -6.7 8.47 -6.6 8.46 -6.56 8.54 -6.56 8.57 -6.46 8.54 -6.49 8.61 -6.46 8.61 -6.38 8.6 -6.32 8.75 -6.31 8.68 -6.25 8.72 -6.24 8.78 -6.14 8.75 -6.14 8.85 -6.1 8.79 -6 8.85 -5.99 8.93 -6.04 8.96 -5.92 8.89 -5.86 8.92 -5.82 9.03 -5.79 9 -5.78 9.1 -5.72 9.07 -5.68 9.1 -5.64 9.14 -5.5 9.1 -5.54 9.24 -5.54 9.24 -5.47 0 0.14zm0 0c28.16,-16.54 51.4,-7.3 51.93,20.71 0.5,28.05 -21.9,64.13 -50.09,80.75l-1.77 -101.46 -0.07 0z"/>
   <path class="fil1" d="M18949.92 23369.54c27.94,-19.64 53.59,-14.47 57.29,11.48 3.67,25.94 -16.05,62.87 -43.95,82.5l-13.23 -93.98 -0.11 0zm-293.54 268.14l12.55 -108.86 9.28 -4.25 9.35 -4.23 9.31 -4.31 9.25 -4.3 9.2 -4.38 9.18 -4.48 9.1 -4.48 9.1 -4.51 9.03 -4.65 9.03 -4.69 8.93 -4.69 8.92 -4.78 8.93 -4.86 8.85 -4.82 8.86 -4.93 8.85 -5.03 8.79 -5 8.71 -5.05 8.68 -5.1 8.61 -5.14 8.67 -5.24 8.61 -5.23 8.54 -5.31 8.47 -5.33 8.46 -5.38 8.36 -5.48 8.44 -5.45 8.36 -5.54 8.36 -5.55 8.22 -5.61 8.22 -5.72 8.25 -5.69 13.23 93.98 -9.07 6.34 -9.1 6.31 -9.17 6.23 -9.14 6.18 -9.17 6.06 -9.24 6.09 -9.31 6 -9.32 5.92 -9.38 5.93 -9.39 5.85 -9.42 5.79 -9.45 5.69 -9.45 5.61 -9.56 5.62 -9.53 5.54 -9.67 5.49 -9.52 5.37 -9.63 5.4 -9.7 5.31 -9.7 5.24 -9.71 5.16 -9.77 5.14 -9.8 5.1 -9.74 4.99 -9.84 4.94 -9.99 4.91 -9.91 4.87 -9.91 4.75 -10.02 4.72 -9.99 4.61 -10.05 4.62 -10.09 4.55 0.04 -0.24zm0 0c-27.98,12.47 -47.81,-1.76 -44.38,-31.87 3.49,-30.04 28.99,-64.52 57.01,-76.99l-12.56 108.86 -0.07 0zm-2416.99 -1690.62c0,28.25 -22.86,64.29 -51.05,80.38 -28.15,16.09 -51.04,6.16 -51.04,-22.11l102.09 -58.27zm1732.98 -1788.56l-50.44 117.86 -88.8 2.26 -87.41 6.59 -86.01 10.98 -84.46 15.06 -82.83 19.08 -81.07 23.04 -79.16 26.78 -77.08 30.41 -74.97 33.9 -72.74 37.25 -70.34 40.5 -67.91 43.57 -65.37 46.46 -62.76 49.39 -60.05 52.03 -57.25 54.61 -54.54 57.12 -51.65 59.55 -48.75 61.98 -45.69 64.28 -42.72 66.6 -39.65 68.9 -36.41 71.15 -33.12 73.27 -29.71 75.43 -26.28 77.57 -22.54 79.45 -18.8 81.35 -14.86 83.15 -10.76 84.84 -6.56 86.36 -2.18 87.79 -102.13 58.27 2.39 -93.25 7.03 -92.28 11.6 -91.23 16.12 -90.06 20.46 -88.87 24.88 -87.45 29.06 -85.9 33.31 -84.32 37.32 -82.51 41.24 -80.54 45.12 -78.35 48.82 -76.1 52.32 -73.59 55.74 -70.87 58.91 -68.09 61.99 -64.98 64.8 -61.81 67.6 -58.49 70.13 -55.1 72.53 -51.61 74.75 -47.98 76.91 -44.27 78.91 -40.4 80.83 -36.54 82.62 -32.6 84.31 -28.47 85.9 -24.45 87.38 -20.14 88.76 -15.88 90 -11.46 91.15 -6.92 92.26 -2.32 -0.15 0zm0 0c24.45,0 33.06,26.45 19.16,58.91 -13.93,32.56 -45.15,58.88 -69.6,58.88l50.44 -117.86 0 0.07z"/>
   <path class="fil0" d="M20468.56 15585.54c-912.88,0 -1652.98,740.06 -1652.98,1652.98 0,912.88 740.1,1652.94 1652.98,1652.94 912.88,0 1652.98,-740.06 1652.98,-1652.94 0,-912.92 -740.1,-1652.98 -1652.98,-1652.98z"/>
   <path class="fil1" d="M22172.48 17209.34l-102.06 58.25 -2.12 -82.59 -6.24 -81.66 -10.23 -80.61 -14.15 -79.52 -18.03 -78.25 -21.76 -76.83 -25.51 -75.28 -29.03 -73.66 -32.56 -71.97 -35.85 -70.17 -39.23 -68.12 -42.33 -66.04 -45.4 -63.85 -48.33 -61.49 -51.19 -59.13 -53.97 -56.65 -56.7 -54.01 -59.19 -51.26 -61.6 -48.44 -63.96 -45.47 -66.21 -42.44 -68.3 -39.23 -70.27 -35.98 -72.22 -32.64 -73.97 -29.17 -75.68 -25.61 -77.22 -21.94 -78.7 -18.21 -80.05 -14.29 -81.28 -10.33 -82.41 -6.25 -83.43 -2.08 50.41 -117.86 86.68 2.15 85.48 6.49 84.14 10.73 82.76 14.74 81.24 18.81 79.55 22.61 78 26.39 76.17 30.05 74.19 33.55 72.32 37.04 70.13 40.33 67.98 43.6 65.65 46.71 63.29 49.74 60.75 52.63 58.17 55.43 55.53 58.24 52.63 60.82 49.78 63.32 46.71 65.79 43.64 68.02 40.42 70.31 37.12 72.42 33.62 74.55 30.12 76.44 26.46 78.28 22.76 80.09 18.83 81.73 14.86 83.33 10.76 84.84 6.56 86.22 2.22 87.53 0.25 -0.15zm-1729.25 1741.03l50.41 -117.89 83.33 -2.05 82.05 -6.24 80.76 -10.24 79.3 -14.14 77.65 -17.96 75.98 -21.55 74.23 -25.09 72.32 -28.5 70.27 -31.79 68.23 -34.88 65.97 -37.96 63.64 -40.78 61.21 -43.57 58.73 -46.22 56.24 -48.72 53.62 -51.11 50.98 -53.52 48.29 -55.74 45.54 -57.96 42.8 -60.18 39.97 -62.3 37.11 -64.46 34.11 -66.6 31.05 -68.58 27.87 -70.59 24.51 -72.6 21.17 -74.44 17.64 -76.23 13.93 -77.9 10.09 -79.51 6.18 -81 2.08 -82.38 102.06 -58.27 -2.23 87.77 -6.63 86.92 -10.9 85.9 -15.17 84.85 -19.33 83.67 -23.42 82.45 -27.38 81 -31.36 79.51 -35.17 77.86 -38.88 75.95 -42.58 73.98 -46 71.86 -49.39 69.43 -52.57 66.89 -55.59 64.2 -58.49 61.38 -61.21 58.35 -63.75 55.18 -66.11 52 -68.4 48.65 -70.52 45.19 -72.53 41.73 -74.33 38.06 -76.13 34.44 -77.86 30.72 -79.38 26.88 -80.82 22.93 -82.23 19.02 -83.5 14.92 -84.81 10.8 -85.8 6.56 -86.78 2.12 -0.07 -0.22zm-1678.76 -1682.78l102.06 -58.25 2.08 82.63 6.28 81.66 10.23 80.58 14.14 79.55 18.03 78.21 21.77 76.8 25.5 75.32 29 73.66 32.6 72 35.84 70.13 39.19 68.12 42.34 66.08 45.43 63.82 48.33 61.52 51.19 59.13 54.01 56.65 56.66 53.94 59.2 51.3 61.59 48.43 63.96 45.51 66.22 42.4 68.29 39.27 70.28 35.91 72.21 32.7 74.01 29.18 75.64 25.61 77.26 21.94 78.63 18.17 80.05 14.32 81.31 10.31 82.38 6.24 83.46 2.05 -50.41 117.89 -86.68 -2.15 -85.48 -6.49 -84.13 -10.65 -82.76 -14.82 -81.21 -18.77 -79.63 -22.61 -77.96 -26.42 -76.13 -30.03 -74.26 -33.58 -72.28 -37.04 -70.14 -40.32 -67.98 -43.57 -65.65 -46.74 -63.29 -49.71 -60.74 -52.67 -58.21 -55.46 -55.49 -58.17 -52.67 -60.85 -49.75 -63.33 -46.7 -65.76 -43.64 -68.05 -40.43 -70.31 -37.15 -72.46 -33.62 -74.5 -30.09 -76.45 -26.49 -78.28 -22.72 -80.08 -18.84 -81.74 -14.89 -83.33 -10.72 -84.8 -6.56 -86.22 -2.23 -87.56 -0.24 0.14zm1729.24 -1741.03l-50.41 117.86 -83.33 2.08 -82.05 6.25 -80.75 10.23 -79.31 14.18 -77.64 17.92 -76.03 21.56 -74.19 25.11 -72.32 28.47 -70.27 31.79 -68.19 34.89 -66.01 37.96 -63.64 40.81 -61.2 43.54 -58.78 46.21 -56.16 48.75 -53.66 51.12 -50.97 53.52 -48.26 55.74 -45.62 57.92 -42.75 60.22 -39.97 62.3 -37.11 64.42 -34.12 66.6 -31.04 68.58 -27.87 70.6 -24.56 72.6 -21.16 74.47 -17.64 76.2 -13.9 77.89 -10.09 79.55 -6.17 81 -2.09 82.37 -102.05 58.25 2.22 -87.74 6.63 -86.92 10.9 -85.94 15.17 -84.84 19.33 -83.68 23.39 -82.45 27.41 -80.99 31.37 -79.52 35.17 -77.86 38.87 -75.95 42.58 -74.01 46.01 -71.83 49.38 -69.39 52.57 -66.92 55.56 -64.21 58.53 -61.38 61.2 -58.35 63.75 -55.17 66.11 -51.97 68.41 -48.68 70.52 -45.16 72.49 -41.77 74.37 -38.1 76.13 -34.39 77.85 -30.73 79.38 -26.85 80.82 -22.96 82.23 -19.02 83.54 -14.95 84.77 -10.73 85.83 -6.56 86.75 -2.15 0.07 0.21z"/>
   <path class="fil1" d="M21517.58 17757.31c14.46,-32.56 45.9,-58.27 70.03,-57.5 24.2,0.74 32.03,27.8 17.49,60.29l-87.52 -2.79zm-35.42 220.49l-66.78 -39.48 3.74 -5.29 3.6 -5.36 3.63 -5.36 3.53 -5.33 3.53 -5.4 3.56 -5.43 3.46 -5.43 3.45 -5.43 3.39 -5.47 3.39 -5.51 3.38 -5.6 3.32 -5.54 3.32 -5.51 3.28 -5.64 3.24 -5.61 3.25 -5.64 3.14 -5.61 3.14 -5.68 3.1 -5.72 3.07 -5.75 3.07 -5.78 3 -5.75 3 -5.79 2.93 -5.86 2.92 -5.82 2.93 -5.89 2.93 -5.93 2.75 -5.85 2.89 -6 2.76 -5.92 2.71 -6 2.68 -6.11 87.53 2.79 -3.14 7.06 -3.21 7.16 -3.35 7.2 -3.32 6.98 -3.35 7.09 -3.39 6.99 -3.42 6.91 -3.53 7.13 -3.52 6.98 -3.64 7.02 -3.6 6.92 -3.63 6.88 -3.67 6.91 -3.81 6.84 -3.74 6.88 -3.88 6.85 -3.84 6.81 -3.92 6.8 -3.95 6.78 -3.99 6.77 -3.98 6.7 -3.99 6.6 -4.16 6.81 -4.2 6.6 -4.23 6.63 -4.24 6.6 -4.23 6.49 -4.31 6.52 -4.37 6.56 -4.41 6.46 -4.37 6.46 -4.48 6.49 0.03 -0.18zm0 0c-21.34,30.66 -53.62,46.64 -72,35.81 -18.42,-10.94 -16.09,-44.59 5.29,-75.29l66.78 39.48 -0.07 0zm-284.27 192.93c27.48,-22.01 54.93,-20.42 61.24,3.53 6.28,23.96 -10.86,61.32 -38.34,83.33l-22.9 -86.86zm-774.84 369.33l50.41 -117.87 26.18 -0.31 26.03 -0.88 25.86 -1.38 25.76 -1.91 25.43 -2.46 25.33 -3 25.12 -3.53 24.87 -4.13 24.69 -4.58 24.49 -5.08 24.27 -5.54 24.02 -6.11 23.78 -6.52 23.56 -7.09 23.29 -7.55 23.03 -7.94 22.79 -8.36 22.48 -8.86 22.26 -9.34 21.94 -9.71 21.62 -10.12 21.42 -10.55 21.09 -10.97 20.71 -11.32 20.46 -11.75 20.11 -12.1 19.79 -12.49 19.48 -12.84 19.15 -13.23 18.8 -13.58 18.49 -13.9 18.13 -14.25 22.9 86.81 -21.27 16.73 -21.52 16.26 -21.88 15.8 -22.19 15.21 -22.47 14.89 -22.72 14.28 -22.93 13.87 -23.25 13.33 -23.49 12.84 -23.71 12.31 -23.95 11.86 -24.17 11.32 -24.41 10.87 -24.62 10.33 -24.87 9.78 -25.09 9.24 -25.25 8.75 -25.47 8.25 -25.65 7.69 -25.86 7.16 -26.04 6.6 -26.17 6 -26.42 5.47 -26.57 4.94 -26.67 4.41 -26.88 3.74 -27.02 3.24 -27.2 2.65 -27.24 2.04 -27.41 1.48 -27.55 0.89 -27.66 0.31 -0.14 -0.1zm-777.1 -272.17l82.38 -107.53 19.33 15.14 19.68 14.78 20.04 14.43 20.32 13.97 20.57 13.58 20.85 13.16 21.16 12.7 21.42 12.31 21.69 11.85 22.02 11.4 22.26 11 22.5 10.55 22.69 10.06 23.03 9.66 23.25 9.18 23.46 8.6 23.74 8.22 23.85 7.73 24.1 7.23 24.34 6.7 24.48 6.21 24.7 5.72 24.87 5.15 25.01 4.62 25.19 4.16 25.4 3.64 25.47 3.03 25.71 2.5 25.86 1.98 25.97 1.38 26.1 0.88 26.25 0.31 -50.45 117.87 -27.62 -0.32 -27.48 -0.95 -27.34 -1.45 -27.17 -2.08 -26.95 -2.65 -26.77 -3.17 -26.6 -3.81 -26.39 -4.3 -26.18 -4.87 -26 -5.37 -25.82 -5.92 -25.54 -6.49 -25.33 -6.99 -25.12 -7.44 -24.87 -8.04 -24.62 -8.54 -24.38 -9 -24.2 -9.56 -23.85 -10.02 -23.63 -10.47 -23.36 -10.91 -23.07 -11.39 -22.79 -11.85 -22.54 -12.32 -22.26 -12.77 -21.94 -13.3 -21.67 -13.58 -21.3 -14.11 -21.03 -14.46 -20.71 -14.96 -20.39 -15.28 -20.07 -15.73 -0.25 -0.07zm0 0c-16.65,-13.3 -11.71,-48.19 11.08,-77.89 22.79,-29.74 54.75,-42.97 71.37,-29.64l-82.38 107.53 -0.07 0zm-292.8 -628.12c8.29,22.4 -6.99,59.65 -33.94,83.29 -26.92,23.64 -55.49,24.62 -63.64,2.26l97.68 -85.55 -0.1 0zm-151.42 -108.16l100.55 -74.9 1.16 5.93 1.13 5.86 1.27 5.85 1.23 5.79 1.24 5.85 1.3 5.86 1.31 5.86 1.38 5.78 1.37 5.79 1.38 5.78 1.48 5.75 1.45 5.79 1.48 5.75 1.51 5.78 1.56 5.79 1.62 5.68 1.62 5.68 1.62 5.75 1.7 5.68 1.69 5.71 1.66 5.61 1.8 5.68 1.76 5.68 1.8 5.61 1.8 5.65 1.87 5.64 1.83 5.61 1.94 5.61 1.91 5.61 1.94 5.57 2.01 5.54 1.98 5.54 -97.69 85.51 -2.08 -5.82 -2.05 -5.85 -2.11 -5.86 -2.01 -5.86 -1.98 -5.85 -2.01 -5.93 -1.94 -5.93 -1.9 -5.92 -1.91 -6 -1.87 -5.93 -1.83 -5.92 -1.84 -6.04 -1.8 -5.99 -1.76 -6 -1.69 -6.03 -1.66 -6 -1.73 -6.07 -1.62 -6.07 -1.59 -6.1 -1.62 -6.14 -1.56 -6.1 -1.55 -6.07 -1.44 -6.17 -1.49 -6.14 -1.44 -6.17 -1.38 -6.18 -1.41 -6.24 -1.31 -6.14 -1.3 -6.21 -1.31 -6.24 -1.23 -6.25 -1.24 -6.24 0 -0.21zm0 0c-4.83,-25.08 13.8,-62.3 41.6,-83.01 27.76,-20.71 54.18,-17.08 59.05,8.04l-100.57 74.9 -0.08 0.07zm79.45 -297.71c0,28.26 -22.86,64.27 -51.05,80.36 -28.15,16.09 -51.01,6.14 -51.01,-22.08l102.06 -58.28zm1192.28 -1247.95l-50.41 117.86 -60.96 1.55 -59.97 4.55 -58.99 7.45 -57.89 10.33 -56.65 13.09 -55.39 15.7 -54.01 18.31 -52.6 20.74 -51.01 23.07 -49.46 25.3 -47.69 27.44 -46.01 29.5 -44.16 31.39 -42.34 33.27 -40.43 35 -38.48 36.72 -36.59 38.35 -34.64 39.97 -32.63 41.59 -30.73 43.07 -28.61 44.67 -26.56 46.24 -24.52 47.84 -22.33 49.32 -20.08 50.94 -17.7 52.32 -15.24 53.8 -12.7 55.21 -10.09 56.51 -7.31 57.75 -4.48 58.88 -1.55 59.97 -102.06 58.32 1.66 -65.41 4.94 -64.8 8.15 -64.21 11.36 -63.43 14.46 -62.69 17.53 -61.73 20.57 -60.82 23.57 -59.73 26.49 -58.6 29.32 -57.25 32.1 -55.78 34.75 -54.18 37.22 -52.42 39.65 -50.52 41.98 -48.44 44.1 -46.14 46.03 -43.92 47.98 -41.56 49.64 -39.05 51.36 -36.48 52.81 -33.87 54.26 -31.29 55.67 -28.43 56.9 -25.75 58.03 -22.83 59.23 -20 60.19 -17.15 61.21 -14.04 62.12 -11.11 62.97 -8.01 63.75 -4.83 64.45 -1.62 -0.18 0.07zm0 0c24.52,0 33.13,26.38 19.19,58.88 -13.97,32.59 -45.12,58.91 -69.6,58.91l50.41 -117.86 0 0.07z"/>
   <path class="fil0" d="M23114.08 21731.04c-494.28,0 -987.15,198.91 -1348.25,591.26 -685.09,744.35 -637.15,1903.25 107.24,2588.34 352.01,323.98 796.65,484.01 1240.12,484.01 494.32,0 987.15,-198.89 1348.25,-591.26 685.09,-744.37 637.12,-1903.25 -107.24,-2588.34 -352.01,-323.99 -796.65,-484.05 -1240.12,-484.01z"/>
   <path class="fil1" d="M24396.53 22162.24l-84.67 105.53 -70.17 -61.36 -72.31 -57.12 -74.48 -52.88 -76.37 -48.64 -78.07 -44.44 -79.66 -40.17 -81.07 -35.97 -82.3 -31.79 -83.36 -27.59 -84.32 -23.35 -85.05 -19.3 -85.69 -14.96 -86.08 -10.97 -86.32 -6.67 -86.36 -2.61 -86.22 1.52 -86.01 5.64 -85.51 9.67 -84.95 13.79 -84.07 17.75 -83.04 21.84 -81.92 25.78 -80.61 29.71 -79.05 33.66 -77.44 37.48 -75.56 41.34 -73.52 45.14 -71.44 48.87 -69.11 52.57 -66.67 56.27 -64.21 59.9 -61.6 63.67 -46.63 -64.53 69.57 -71.83 72.21 -67.34 74.58 -62.91 76.76 -58.33 78.81 -53.91 80.5 -49.35 82.06 -44.89 83.54 -40.46 84.77 -36.12 85.9 -31.72 86.86 -27.3 87.66 -23.08 88.3 -18.69 88.87 -14.36 89.21 -10.09 89.47 -5.86 89.5 -1.62 89.5 2.68 89.22 7.02 88.75 11.22 88.23 15.49 87.53 19.79 86.71 24.02 85.69 28.29 84.49 32.64 83.15 36.9 81.7 41.17 80.08 45.53 78.18 49.81 76.24 54.12 74.15 58.5 71.83 62.84 -0.18 0.06zm88.23 2673.33l-46.64 -64.49 58.17 -66.52 54.09 -68.53 50.02 -70.46 46.11 -72.33 42.22 -74.14 38.21 -75.84 34.43 -77.55 30.48 -78.95 26.57 -80.38 22.64 -81.68 18.7 -82.68 14.71 -83.62 10.69 -84.38 6.63 -84.91 2.54 -85.3 -1.44 -85.55 -5.65 -85.53 -9.7 -85.37 -13.79 -84.99 -17.85 -84.44 -21.98 -83.79 -26.14 -82.89 -30.16 -81.85 -34.36 -80.62 -38.42 -79.2 -42.48 -77.69 -46.56 -75.95 -50.7 -74.07 -54.75 -72.01 -58.77 -69.73 -62.9 -67.38 -66.89 -64.81 84.67 -105.56 68.54 66.35 64.42 69.07 60.29 71.53 56.16 73.9 52.07 76.06 47.91 78.14 43.71 79.99 39.58 81.69 35.42 83.24 31.22 84.68 27.02 85.92 22.86 86.98 18.66 87.92 14.4 88.74 10.16 89.41 5.82 89.92 1.62 90.22 -2.68 90.47 -7.09 90.53 -11.47 90.45 -15.87 90.21 -20.32 89.92 -24.77 89.39 -29.35 88.7 -33.86 87.85 -38.49 86.74 -43.15 85.47 -47.76 83.99 -52.35 82.2 -56.98 80.24 -61.52 78 -65.97 75.34 0.07 -0.07zm-2654.02 127.81l84.67 -105.56 70.16 61.37 72.36 57.12 74.47 52.87 76.34 48.69 78.07 44.4 79.66 40.21 81.07 36 82.3 31.8 83.36 27.56 84.32 23.43 85.09 19.22 85.61 15.02 86.05 10.85 86.32 6.72 86.36 2.62 86.22 -1.56 86.01 -5.61 85.51 -9.71 84.95 -13.78 84.07 -17.78 83.04 -21.77 81.92 -25.81 80.61 -29.73 79.05 -33.62 77.47 -37.48 75.53 -41.39 73.52 -45.09 71.44 -48.82 69.11 -52.57 66.78 -56.29 64.21 -59.88 61.55 -63.67 46.64 64.5 -69.57 71.83 -72.21 67.39 -74.58 62.87 -76.76 58.36 -78.78 53.88 -80.54 49.37 -82.05 44.89 -83.5 40.48 -84.81 36.11 -85.9 31.72 -86.82 27.33 -87.74 23.01 -88.26 18.7 -88.83 14.4 -89.22 10.17 -89.46 5.86 -89.54 1.54 -89.5 -2.71 -89.22 -7.01 -88.83 -11.23 -88.19 -15.46 -87.56 -19.81 -86.71 -24.01 -85.69 -28.32 -84.49 -32.66 -83.15 -36.93 -81.71 -41.2 -80.08 -45.52 -78.17 -49.77 -76.24 -54.13 -74.12 -58.53 -71.82 -62.81 0.21 -0.07zm-88.23 -2673.36l46.67 64.53 -58.2 66.53 -54.09 68.49 -50.02 70.44 -46.11 72.39 -42.15 74.14 -38.32 75.82 -34.39 77.51 -30.48 79.01 -26.57 80.37 -22.64 81.68 -18.7 82.76 -14.68 83.6 -10.72 84.38 -6.6 84.92 -2.57 85.29 1.44 85.55 5.65 85.51 9.7 85.4 13.79 84.99 17.85 84.44 22.05 83.75 26.07 82.92 30.16 81.86 34.29 80.58 38.42 79.23 42.48 77.69 46.56 75.97 50.7 74.07 54.75 71.96 58.77 69.78 62.94 67.34 66.85 64.83 -84.67 105.56 -68.51 -66.38 -64.45 -69.04 -60.29 -71.52 -56.16 -73.9 -52.07 -76.07 -47.91 -78.13 -43.71 -80 -39.55 -81.67 -35.41 -83.25 -31.26 -84.67 -27.02 -85.92 -22.9 -87 -18.63 -87.91 -14.35 -88.78 -10.16 -89.36 -5.86 -89.92 -1.62 -90.23 2.68 -90.47 7.09 -90.54 11.46 -90.47 15.84 -90.29 20.36 -89.91 24.76 -89.37 29.36 -88.72 33.86 -87.81 38.49 -86.79 43.11 -85.44 47.84 -83.98 52.31 -82.23 56.98 -80.22 61.52 -77.98 65.97 -75.38 0 0.06z"/>
   <path class="fil1" d="M24309.78 23106.47c-9.24,-21.38 4.83,-58.66 31.5,-83.16 26.64,-24.46 55.71,-26.94 64.95,-5.44l-96.45 88.67 0 -0.07zm176.35 158.59l-100.15 77.06 -1.66 -7.47 -1.8 -7.44 -1.76 -7.55 -1.87 -7.47 -1.8 -7.48 -1.94 -7.47 -1.94 -7.45 -1.98 -7.48 -2.01 -7.47 -2.11 -7.48 -2.12 -7.44 -2.19 -7.4 -2.22 -7.37 -2.22 -7.41 -2.29 -7.38 -2.44 -7.4 -2.36 -7.41 -2.47 -7.31 -2.47 -7.3 -2.54 -7.4 -2.61 -7.3 -2.61 -7.31 -2.68 -7.3 -2.72 -7.35 -2.79 -7.3 -2.75 -7.23 -2.86 -7.24 -2.92 -7.23 -2.93 -7.24 -3 -7.23 -3 -7.24 -3.07 -7.16 96.45 -88.68 3.25 7.44 3.14 7.55 3.17 7.54 3.07 7.55 3 7.54 3 7.54 2.93 7.66 2.85 7.61 2.86 7.62 2.75 7.61 2.79 7.71 2.68 7.69 2.65 7.61 2.61 7.71 2.61 7.79 2.54 7.69 2.47 7.78 2.47 7.75 2.36 7.79 2.33 7.78 2.29 7.79 2.26 7.76 2.22 7.78 2.15 7.86 2.08 7.85 2.09 7.86 2.01 7.85 1.97 7.86 1.94 7.85 1.87 7.86 1.8 7.92 1.8 7.92 -0.18 0.21zm0 0c5.47,24.63 -12.45,61.83 -40.14,83.17 -27.69,21.21 -54.51,18.53 -60.01,-6.11l100.15 -77.06zm-71.82 451.38c2.01,-29.33 26.49,-64.54 54.61,-78.62 28.08,-13.99 49.28,-1.59 47.27,27.8l-101.88 50.82zm-279.22 827.81l-46.64 -64.49 18.31 -20.33 17.71 -20.56 17.18 -20.85 16.61 -21.11 16.09 -21.33 15.63 -21.63 14.99 -21.85 14.57 -22.11 14.01 -22.33 13.47 -22.63 13.02 -22.84 12.45 -23.12 12.03 -23.32 11.47 -23.57 10.93 -23.77 10.48 -24.05 9.91 -24.14 9.49 -24.43 8.93 -24.63 8.39 -24.78 7.94 -25.01 7.38 -25.17 6.84 -25.33 6.35 -25.56 5.82 -25.73 5.33 -25.88 4.76 -25.94 4.23 -26.08 3.67 -26.19 3.18 -26.32 2.61 -26.41 2.08 -26.46 101.88 -50.82 -2.33 28.87 -2.85 28.87 -3.46 28.87 -4.09 28.87 -4.66 28.86 -5.36 28.88 -5.93 28.77 -6.53 28.73 -7.16 28.73 -7.76 28.63 -8.39 28.56 -9 28.49 -9.67 28.38 -10.23 28.36 -10.83 28.14 -11.57 28.12 -12.13 27.94 -12.81 27.8 -13.44 27.63 -14.11 27.42 -14.78 27.26 -15.38 27.01 -16.02 26.8 -16.72 26.55 -17.32 26.33 -17.92 26.01 -18.56 25.73 -19.16 25.4 -19.89 25.1 -20.46 24.78 -21.03 24.42 -21.63 24.02 0.08 0.44zm-831.93 446.46l39.27 -116.93 26.56 -4.31 26.39 -4.85 26.35 -5.42 26.14 -5.92 26.14 -6.44 25.86 -7.03 25.72 -7.55 25.54 -8.06 25.44 -8.64 25.15 -9.07 24.94 -9.64 24.8 -10.16 24.56 -10.68 24.34 -11.16 24.09 -11.72 23.78 -12.16 23.56 -12.71 23.25 -13.16 23.04 -13.71 22.68 -14.17 22.4 -14.6 22.12 -15.19 21.77 -15.61 21.48 -16.08 21.17 -16.58 20.78 -17.02 20.5 -17.53 20.14 -18.03 19.83 -18.46 19.47 -18.95 19.08 -19.46 18.77 -19.95 46.67 64.49 -22.19 23.57 -22.57 22.94 -22.83 22.33 -23.18 21.63 -23.56 21.08 -23.88 20.44 -24.13 19.78 -24.52 19.15 -24.7 18.56 -25.01 17.96 -25.26 17.22 -25.47 16.64 -25.72 16.02 -25.96 15.37 -26.11 14.81 -26.31 14.15 -26.53 13.55 -26.74 12.91 -26.88 12.34 -27.03 11.71 -27.16 11.16 -27.31 10.54 -27.44 9.92 -27.55 9.35 -27.7 8.68 -27.83 8.16 -27.84 7.55 -27.97 6.92 -27.98 6.38 -28.11 5.79 -28.19 5.16 -28.26 4.62 0.14 0.07zm0 0c-26,3.93 -38.34,-19.02 -27.44,-51.26 10.83,-32.36 40.71,-61.74 66.71,-65.67l-39.27 116.93zm-665.3 -202.23c20.11,8.3 20.43,40.54 0.71,72.03 -19.72,31.49 -52.04,50.2 -72.25,41.9l71.54 -113.93zm-267.58 13.46l77.96 -110.61 5.72 3.51 5.75 3.48 5.78 3.44 5.79 3.49 5.75 3.37 5.79 3.41 5.75 3.3 5.85 3.31 5.86 3.31 5.85 3.24 5.86 3.21 5.86 3.17 5.92 3.17 5.93 3.06 5.93 3.07 5.92 3.1 5.93 2.99 5.93 3.01 5.99 2.92 6.04 2.93 5.99 2.85 6 2.83 6.03 2.87 5.96 2.85 6 2.75 6 2.69 6.1 2.73 6.11 2.69 6.06 2.62 6.11 2.61 6.06 2.55 6.07 2.51 -71.51 113.96 -6.28 -2.61 -6.35 -2.72 -6.31 -2.68 -6.28 -2.69 -6.24 -2.8 -6.25 -2.75 -6.24 -2.86 -6.25 -2.82 -6.21 -2.94 -6.24 -2.92 -6.24 -2.94 -6.18 -2.99 -6.17 -3 -6.14 -3.1 -6.17 -3.06 -6.14 -3.17 -6.18 -3.14 -6.1 -3.17 -6.07 -3.24 -6.06 -3.24 -6.07 -3.3 -6.1 -3.31 -6.07 -3.38 -6.03 -3.38 -6 -3.4 -6 -3.44 -6.03 -3.49 -6 -3.54 -6 -3.51 -5.89 -3.63 -5.92 -3.61 -5.93 -3.63 0 0.07zm0 0c-18.2,-11.25 -15.49,-45.13 6.03,-75.68 21.59,-30.56 53.76,-46.2 71.93,-34.93l-77.96 110.61zm-123.51 -263.68c15.7,14.46 9.53,49.88 -13.86,79 -23.39,29.17 -55.11,41.02 -70.84,26.56l84.7 -105.56zm-144.74 -1886.84l46.63 64.49 -41.84 47.89 -38.91 49.26 -35.91 50.67 -33.2 52.07 -30.33 53.33 -27.56 54.66 -24.8 55.88 -22.01 57.05 -19.23 58.13 -16.4 59.12 -13.58 60.04 -10.69 60.77 -7.76 61.36 -4.87 61.81 -1.84 62.2 1.1 62.37 4.05 62.43 7.1 62.36 10.08 62.14 13.09 61.81 16.09 61.28 19.08 60.68 22.09 59.94 25.12 59.05 28.18 58.04 31.08 56.98 34.19 55.68 37.18 54.26 40.11 52.81 43.15 51.19 46.07 49.43 49.14 47.59 -84.67 105.53 -50.76 -49.1 -47.66 -51.13 -44.63 -52.94 -41.59 -54.75 -38.49 -56.36 -35.49 -57.81 -32.42 -59.22 -29.35 -60.49 -26.25 -61.67 -23.14 -62.74 -20 -63.69 -16.97 -64.5 -13.83 -65.29 -10.72 -65.91 -7.55 -66.41 -4.38 -66.83 -1.16 -67.15 1.98 -67.35 5.25 -67.45 8.54 -67.5 11.89 -67.38 15.17 -67.21 18.52 -66.91 22.01 -66.42 25.44 -65.84 28.92 -65.11 32.42 -64.29 35.99 -63.21 39.4 -61.87 42.87 -60.36 46.35 -58.68 49.64 -56.73 0.07 0zm0 0c25.11,-27.26 55.81,-34.91 68.75,-17.09 12.88,17.78 3,54.32 -22.12,81.58l-46.63 -64.49z"/>
  </g>
 </g>
</svg>
